<?xml version="1.0" standalone="no"?>
<!DOCTYPE svg PUBLIC "-//W3C//DTD SVG 20010904//EN"
 "http://www.w3.org/TR/2001/REC-SVG-20010904/DTD/svg10.dtd">
<svg version="1.0" xmlns="http://www.w3.org/2000/svg"
 width="700.000000pt" height="700.000000pt" viewBox="0 0 700.000000 700.000000"
 preserveAspectRatio="xMidYMid meet">
<metadata>
Created by potrace 1.11, written by Peter Selinger 2001-2013
</metadata>
<g transform="translate(0.000000,700.000000) scale(0.100000,-0.100000)"
fill="#000000" stroke="none">
<path d="M3340 6989 c-593 -35 -1163 -290 -1585 -709 l-100 -99 -95 17 c-73
12 -153 16 -345 16 -224 -1 -258 -3 -330 -22 -180 -49 -340 -155 -408 -272
-67 -116 -108 -332 -88 -466 40 -272 262 -460 569 -481 95 -7 88 7 68 -144
-52 -375 -17 -747 114 -1214 309 -1101 1056 -2277 2178 -3425 l180 -185 110
108 109 109 54 -16 c132 -40 402 -39 564 0 431 106 756 450 965 1023 41 113
109 383 149 595 24 122 21 115 71 176 164 199 272 466 274 677 1 100 -19 136
-77 141 -48 4 -93 -37 -141 -127 -48 -91 -80 -218 -110 -433 l-25 -177 -54
-73 c-82 -110 -141 -172 -228 -237 -73 -56 -263 -160 -273 -150 -2 2 41 72 96
154 296 445 555 936 723 1370 84 218 177 527 221 728 12 58 22 81 38 91 11 7
54 32 94 56 107 63 205 158 243 236 65 131 48 278 -42 358 -61 56 -175 106
-241 106 -16 0 -28 1 -28 3 -1 35 -46 292 -65 371 -62 254 -194 556 -332 766
-389 588 -992 984 -1675 1100 -101 17 -404 43 -443 38 -5 0 -66 -4 -135 -9z
m-2022 -839 c101 -11 243 -38 254 -48 4 -4 -16 -36 -44 -72 -131 -168 -271
-412 -351 -615 -33 -82 -97 -287 -112 -359 l-6 -29 -97 6 c-373 21 -589 311
-502 674 38 160 106 261 228 340 141 92 375 130 630 103z m4747 -1494 c100
-26 176 -80 212 -150 10 -19 16 -54 16 -92 -1 -128 -86 -238 -241 -315 -45
-23 -85 -39 -87 -37 -3 3 -1 27 4 54 19 102 33 332 27 442 -7 125 -11 120 69
98z m-410 -2061 c-38 -146 -71 -239 -115 -323 -23 -45 -28 -51 -25 -27 31 220
49 291 97 395 38 83 56 106 70 92 4 -4 -8 -66 -27 -137z m-282 -797 c-166
-565 -474 -1018 -838 -1235 -185 -110 -417 -188 -594 -200 l-95 -6 171 189
c275 305 481 555 710 864 l101 135 77 24 c130 41 320 146 425 235 30 25 55 46
56 46 2 0 -4 -24 -13 -52z"/>
</g>
</svg>
