<?xml version="1.0" encoding="utf-8"?>
<!-- Generator: Adobe Illustrator 16.0.0, SVG Export Plug-In . SVG Version: 6.00 Build 0)  -->
<!DOCTYPE svg PUBLIC "-//W3C//DTD SVG 1.1//EN" "http://www.w3.org/Graphics/SVG/1.1/DTD/svg11.dtd">
<svg version="1.1" id="add-marker" xmlns="http://www.w3.org/2000/svg" xmlns:xlink="http://www.w3.org/1999/xlink" x="0px" y="0px"
	 width="1024px" height="1024px" viewBox="0 0 1024 1024" enable-background="new 0 0 1024 1024" xml:space="preserve">
<path d="M863.183,352.733c0-1.382-0.01-2.754-0.029-4.127C861.14,156.398,704.69,1.2,512,1.2
	c-192.69,0-349.14,155.198-351.153,347.407c-0.02,1.363-0.03,2.745-0.03,4.127c0.001,1.564,0.014,3.126,0.036,4.686
	C163.926,709.605,512,1025.199,512,1025.199s348.066-316.065,351.146-667.776C863.168,355.862,863.181,354.299,863.183,352.733z
	 M683.284,392H552v132.018c0,22.127-17.873,40.066-40,40.066c-22.126,0-40-17.939-40-40.066V392H339.714
	c-22.126,0-40.066-17.874-40.066-40s17.94-40,40.066-40H472V180.447c0-22.126,17.874-40.066,40-40.066c22.127,0,40,17.94,40,40.066
	V312h131.284c22.127,0,40.066,17.874,40.066,40S705.411,392,683.284,392z"/>
</svg>
