<?xml version="1.0" encoding="utf-8"?>
<!-- Generator: Adobe Illustrator 16.0.0, SVG Export Plug-In . SVG Version: 6.00 Build 0)  -->
<!DOCTYPE svg PUBLIC "-//W3C//DTD SVG 1.1//EN" "http://www.w3.org/Graphics/SVG/1.1/DTD/svg11.dtd">
<svg version="1.1" id="edit-marker" xmlns="http://www.w3.org/2000/svg" xmlns:xlink="http://www.w3.org/1999/xlink" x="0px" y="0px"
	 width="1024px" height="1024px" viewBox="0 0 1024 1024" enable-background="new 0 0 1024 1024" xml:space="preserve">
<path d="M863.15,347.41C861.14,155.2,704.69,0,512,0C319.31,0,162.86,155.2,160.85,347.41c-0.02,1.36-0.03,2.74-0.03,4.12
	c0,1.57,0.01,3.13,0.03,4.69C163.93,708.41,512,1024,512,1024s348.07-316.07,351.15-667.78c0.02-1.56,0.029-3.12,0.029-4.69
	C863.18,350.15,863.17,348.78,863.15,347.41z M436.434,532.018c0-17.712-0.814-32.782,0.186-47.741
	c0.751-11.04-3.659-13.821-13.892-15.211c-34.671-4.782-67.766-15.32-98.045-33.336C290.566,415.403,270,385.681,261,347.032
	v-16.684c31,47.157,78.157,59.946,129.818,63.257c14.598,0.944,28.182,0.139,46.182,0.139v-64.924
	c50,34.506,99.814,67.4,150.613,101.626C536.899,464.561,487.817,497.455,436.434,532.018z M763,374.836
	c-31-46.685-77.154-59.807-128.289-63.229c-15.124-1-30.711-0.138-47.711-0.138v65.008c-50-34.478-99.541-67.343-150.675-101.682
	C486.736,240.844,534,207.924,587,173.64v58.834c77,15.822,152,34.339,176,125.678V374.836z"/>
</svg>
