<?xml version="1.0" encoding="utf-8"?>
<!-- Generator: Adobe Illustrator 16.0.0, SVG Export Plug-In . SVG Version: 6.00 Build 0)  -->
<!DOCTYPE svg PUBLIC "-//W3C//DTD SVG 1.1//EN" "http://www.w3.org/Graphics/SVG/1.1/DTD/svg11.dtd">
<svg version="1.1" id="logout" xmlns="http://www.w3.org/2000/svg" xmlns:xlink="http://www.w3.org/1999/xlink" x="0px" y="0px"
	 width="1024px" height="1024px" viewBox="0 0 1024 1024" enable-background="new 0 0 1024 1024" xml:space="preserve">
<g>
	<path d="M187.886,898.652c-5.862,0-11.921-1.771-17.975-5.267L17.154,805.049c-10.903-6.295-17.167-15.852-17.167-26.213
		c0-10.407,6.301-20.015,17.292-26.36l152.537-88.324c6.066-3.501,12.148-5.273,18.018-5.273c15.973,0,27.166,12.976,27.166,31.555
		V723h230.041C465.279,723,480,738.551,480,758.783v38.964C480,818.418,464.615,835,445.041,835H215v32.097
		C215,885.674,203.828,898.648,187.886,898.652z"/>
	<g>
		<path d="M631.944,507.003c123.692,0,224.322-100.63,224.322-224.322c0-123.692-100.63-224.324-224.322-224.324
			c-123.691,0-224.322,100.631-224.322,224.324C407.622,406.373,508.253,507.003,631.944,507.003z M631.944,104.604
			c98.192,0,178.077,79.885,178.077,178.077c0,98.191-79.885,178.076-178.077,178.076c-98.19,0-178.076-79.884-178.076-178.076
			C453.868,184.489,533.754,104.604,631.944,104.604z"/>
		<path d="M993.174,789.934c-19.748-46.688-48.011-88.613-84.01-124.609c-35.998-35.999-77.922-64.262-124.609-84.01
			c-48.35-20.45-99.695-30.819-152.61-30.819c-52.916,0-104.262,10.369-152.61,30.819c-46.687,19.748-88.612,47.602-124.609,83.601
			c-3.438,3.438-6.784,7.085-10.08,10.085h67.186c61.822-51,138.823-78.668,220.114-78.668c92.366,0,179.206,36.175,244.52,101.489
			s101.283,152.255,101.283,244.62c0,12.771,10.352,23.175,23.122,23.175c12.771,0,23.124-10.328,23.124-23.099
			C1023.993,889.601,1013.624,838.283,993.174,789.934z"/>
		<path d="M243.266,890c-2.238,17-3.369,34.702-3.369,52.127c0,12.771,10.352,23.331,23.122,23.331
			c12.771,0,23.124-10.665,23.124-23.435c0-17.471,1.293-35.023,3.821-52.023H243.266z"/>
	</g>
</g>
</svg>
