<?xml version="1.0" encoding="utf-8"?>
<!-- Generator: Adobe Illustrator 16.0.0, SVG Export Plug-In . SVG Version: 6.00 Build 0)  -->
<!DOCTYPE svg PUBLIC "-//W3C//DTD SVG 1.1//EN" "http://www.w3.org/Graphics/SVG/1.1/DTD/svg11.dtd">
<svg version="1.1" id="Layer_1" xmlns="http://www.w3.org/2000/svg" xmlns:xlink="http://www.w3.org/1999/xlink" x="0px" y="0px"
	 width="1024px" height="1024px" viewBox="0 0 1024 1024" style="enable-background:new 0 0 1024 1024;" xml:space="preserve">
<radialGradient id="SVGID_1_" cx="512" cy="953.4453125" r="301.7987976" gradientTransform="matrix(1 0 0 0.259392 0 706.1292114)" gradientUnits="userSpaceOnUse">
	<stop  offset="0" style="stop-color:#000000;stop-opacity:0.8"/>
	<stop  offset="1" style="stop-color:#FFFFFF;stop-opacity:0"/>
</radialGradient>
<path style="fill:url(#SVGID_1_);" d="M826.8671875,953.4404297c0,38.84375-140.9697266,70.3212891-314.8666992,70.3212891
	s-314.8676758-31.4775391-314.8676758-70.3212891c0-38.8447266,140.9707031-70.3115234,314.8676758-70.3115234
	S826.8671875,914.5957031,826.8671875,953.4404297z"/>
<path style="fill:#DB5461;" d="M852.4570312,340.456543C852.4570312,152.4267578,700.03125,0,512.0004883,0
	C323.9702148,0,171.543457,152.4267578,171.543457,340.456543c0,0-17.6611328,260.0024414,340.4570312,612.2407227
	C870.1191406,600.4589844,852.4570312,340.456543,852.4570312,340.456543z"/>
<g>
	<path style="fill:#DB5461;" d="M731.7197266,337.6098633c0,121.800293-98.7392578,220.5405273-220.5395508,220.5405273
		s-220.550293-98.7402344-220.550293-220.5405273c0-59.3999023,23.4902344-113.2998047,61.6699219-152.9599609
		c0.9799805-1.0200195,1.9702148-2.0297852,2.9702148-3.0297852c39.9101562-39.8798828,95.0297852-64.550293,155.9101562-64.550293
		C632.9804688,117.0698242,731.7197266,215.8100586,731.7197266,337.6098633z"/>
	<path style="fill:#FFFFFF;" d="M511.1791992,117.0712891c121.7993164,0,220.5395508,98.7353516,220.5395508,220.5395508
		c0,121.8032227-98.7402344,220.5405273-220.5395508,220.5405273c-121.8041992,0-220.5463867-98.7373047-220.5463867-220.5405273
		C290.6328125,215.8066406,389.375,117.0712891,511.1791992,117.0712891 M511.1791992,73.3085938
		c-35.6625977,0-70.2792969,6.9853516-102.8920898,20.7817383c-31.4794922,13.3237305-59.7426758,32.3701172-84.0009766,56.6333008
		c-24.2583008,24.2529297-43.3100586,52.515625-56.621582,83.9907227
		c-13.7978516,32.6171875-20.7885742,67.2275391-20.7885742,102.8964844c0,35.6577148,6.9907227,70.2783203,20.7885742,102.8969727
		c13.3115234,31.4750977,32.3632812,59.737793,56.621582,83.9902344
		c24.2583008,24.2529297,52.5214844,43.3095703,84.0009766,56.6328125
		c32.612793,13.7871094,67.2294922,20.78125,102.8920898,20.78125c35.6577148,0,70.2739258-6.9941406,102.8911133-20.78125
		c31.4755859-13.3232422,59.7373047-32.3798828,83.9970703-56.6328125
		c24.2568359-24.2524414,43.3085938-52.5151367,56.6269531-83.9902344
		c13.7919922-32.6186523,20.7880859-67.2392578,20.7880859-102.8969727c0-35.6689453-6.9960938-70.2792969-20.7880859-102.8964844
		c-13.3183594-31.4750977-32.3701172-59.737793-56.6269531-83.9907227
		c-24.2597656-24.2631836-52.5214844-43.3095703-83.9970703-56.6333008
		C581.453125,80.2939453,546.8369141,73.3085938,511.1791992,73.3085938L511.1791992,73.3085938z"/>
</g>
<path style="fill:#FFFFFF;" d="M651.9697266,300.6499023C636.9003906,297.7597656,616.9199219,296,595,296
	s-41.9003906,1.7597656-56.9697266,4.6499023C520.8203125,303.9399414,510,308.7001953,510,314v91c0,53.0195312,38.0595703,96,85,96
	s85-42.9804688,85-96v-91C680,308.7001953,669.1796875,303.9399414,651.9697266,300.6499023z M524.3671875,359.5527344
	l52.1396484-13.9707031c3.8808594,14.4882812-4.6884766,29.1962891-19.0849609,33.0546875
	C543.0253906,382.4941406,528.2490234,374.0410156,524.3671875,359.5527344z M559,453c0-20,16.1181641-36,36-36s36,16,36,36H559z
	 M634.4960938,377.5292969c-14.3964844-3.8574219-22.9658203-18.5654297-19.0839844-33.0546875l52.1396484,13.9707031
	C663.6689453,372.9335938,648.8945312,381.3867188,634.4960938,377.5292969z"/>
<path style="fill:#DB5461;" d="M529.6347656,194.8300781c-0.9892578,0.4799805-5.8769531,2.7299805-16.5273438,4.9599609
	c-11,2.2998047-30.5185547,5.0400391-61.1289062,5.0400391c-30.609375,0-50.1391602-2.7402344-61.1391602-5.0400391
	c-10.6601562-2.2299805-15.574707-4.4799805-16.5649414-4.9599609l-19.0068359-13.2099609
	c-1,1-1.9042969,2.0097656-2.8842773,3.0297852L353,207v119c0,29.1098633,10.0151367,56.5498047,28.3647461,77.2797852
	c18.7900391,21.2104492,43.8579102,32.8901367,70.6777344,32.8901367s51.8237305-11.6796875,70.6137695-32.8901367
	C541.0068359,382.5498047,551,355.1098633,551,326V179.8999023L529.6347656,194.8300781z M537,326c0,53.0200195-38.0600586,96-85,96
	s-85-42.9799805-85-96V207c0,0,19.4799805,12,85,12c65.5195312,0,85-12,85-12V326z M490.5,271.5c-12.9799805,0-23.5,11.5-23.5,23.5
	h47C514,283,503.4799805,271.5,490.5,271.5z M454,378c19.8798828,0,36-17,36-36h-72C418,361,434.1201172,378,454,378z
	 M470.3100586,356c-4.0698242,5-9.9799805,7.6601562-16.3100586,7.6601562S441.7597656,361,437.6899414,356H470.3100586z
	 M417.5,271.5c-12.9799805,0-23.5,11.5-23.5,23.5h47C441,283,430.4799805,271.5,417.5,271.5z M418,342c0,19,16.1201172,36,36,36
	s36-17,36-36H418z M454,363.6601562c-6.3300781,0-12.2402344-2.6601562-16.3100586-7.6601562h32.6201172
	C466.2402344,361,460.3300781,363.6601562,454,363.6601562z M417.5,271.5c-12.9799805,0-23.5,11.5-23.5,23.5h47
	C441,283,430.4799805,271.5,417.5,271.5z M490.5,271.5c-12.9799805,0-23.5,11.5-23.5,23.5h47C514,283,503.4799805,271.5,490.5,271.5
	z M490.5,271.5c-12.9799805,0-23.5,11.5-23.5,23.5h47C514,283,503.4799805,271.5,490.5,271.5z M454,378c19.8798828,0,36-17,36-36
	h-72C418,361,434.1201172,378,454,378z M470.3100586,356c-4.0698242,5-9.9799805,7.6601562-16.3100586,7.6601562
	S441.7597656,361,437.6899414,356H470.3100586z M417.5,271.5c-12.9799805,0-23.5,11.5-23.5,23.5h47
	C441,283,430.4799805,271.5,417.5,271.5z"/>
<g>
	<path style="fill:#FFFFFF;" d="M452,219c-65.5205078,0-85-12-85-12v119c0,53.0200195,38.0556641,96,85,96s85-42.9799805,85-96V207
		C537,207,517.5205078,219,452,219z M394,295c0-12,10.5214844-23.5,23.5-23.5S441,283,441,295H394z M454,378
		c-19.8818359,0-36-17-36-36h72C490,361,473.8818359,378,454,378z M467,295c0-12,10.5214844-23.5,23.5-23.5S514,283,514,295H467z"/>
</g>
</svg>
