<?xml version="1.0" encoding="utf-8"?>
<!-- Generator: Adobe Illustrator 16.0.0, SVG Export Plug-In . SVG Version: 6.00 Build 0)  -->
<!DOCTYPE svg PUBLIC "-//W3C//DTD SVG 1.1//EN" "http://www.w3.org/Graphics/SVG/1.1/DTD/svg11.dtd">
<svg version="1.1" xmlns="http://www.w3.org/2000/svg" xmlns:xlink="http://www.w3.org/1999/xlink" x="0px"
	 y="0px" width="1024px" height="1024px" viewBox="0 0 1024 1024" style="enable-background:new 0 0 1024 1024;"
	 xml:space="preserve">
<path style="fill:#DB5461;" d="M877.9375,365.9375C877.9375,163.8349609,714.1044922,0,512,0
	C309.8979492,0,146.0625,163.8349609,146.0625,365.9375c0,0-18.9829102,279.4619141,365.9375,658.0625
	C896.921875,645.3994141,877.9375,365.9375,877.9375,365.9375z"/>
<g>
	<path style="fill:#DB5461;" d="M511.1181641,125.8334961c-130.9208984,0-237.0532227,106.125-237.0532227,237.0454102
		c0,130.9189453,106.1323242,237.0458984,237.0532227,237.0458984c130.9150391,0,237.0449219-106.1269531,237.0449219-237.0458984
		C748.1630859,231.9584961,642.0332031,125.8334961,511.1181641,125.8334961z"/>
	<path style="fill:#FFFFFF;" d="M511.1181641,125.8334961c130.9150391,0,237.0449219,106.125,237.0449219,237.0454102
		c0,130.9189453-106.1298828,237.0458984-237.0449219,237.0458984c-130.9208984,0-237.0532227-106.1269531-237.0532227-237.0458984
		C274.0649414,231.9584961,380.1972656,125.8334961,511.1181641,125.8334961 M511.1181641,78.7954102
		c-38.3320312,0-75.5390625,7.5078125-110.5932617,22.3369141c-33.8354492,14.3208008-64.2133789,34.7929688-90.2875977,60.8720703
		c-26.0742188,26.0678711-46.5517578,56.4458008-60.859375,90.2768555
		c-14.8305664,35.0581055-22.3447266,72.2587891-22.3447266,110.5976562c0,38.3261719,7.5141602,75.5375977,22.3447266,110.5976562
		c14.3076172,33.8305664,34.7851562,64.2089844,60.859375,90.2763672
		c26.0742188,26.0683594,56.4521484,46.5507812,90.2875977,60.8710938
		c35.0541992,14.8193359,72.2612305,22.3369141,110.5932617,22.3369141c38.3261719,0,75.5332031-7.5175781,110.5917969-22.3369141
		c33.8310547-14.3203125,64.2080078-34.8027344,90.2832031-60.8710938
		c26.0722656-26.0673828,46.5498047-56.4458008,60.8652344-90.2763672
		c14.8242188-35.0600586,22.34375-72.2714844,22.34375-110.5976562c0-38.3388672-7.5195312-75.5395508-22.34375-110.5976562
		c-14.3154297-33.8310547-34.7929688-64.2089844-60.8652344-90.2768555
		c-26.0751953-26.0791016-56.4521484-46.5512695-90.2832031-60.8720703
		C586.6513672,86.3032227,549.4443359,78.7954102,511.1181641,78.7954102L511.1181641,78.7954102z"/>
</g>
<g>
	<g>
		<rect x="400.2163086" y="276.2348633" style="fill:#FFFFFF;" width="23.6464844" height="148.328125"/>
		<rect x="450.7338867" y="276.2348633" style="fill:#FFFFFF;" width="22.5717773" height="148.328125"/>
		<rect x="501.2514648" y="276.2348633" style="fill:#FFFFFF;" width="21.496582" height="148.328125"/>
		<rect x="549.6191406" y="276.2348633" style="fill:#FFFFFF;" width="23.6464844" height="148.328125"/>
		<rect x="600.1367188" y="276.2348633" style="fill:#FFFFFF;" width="23.6464844" height="148.328125"/>
	</g>
	<path style="fill:#FFFFFF;" d="M636.6826172,433.1616211H512H387.3173828c0,0-11.7617188,32.2456055-35.2885742,41.9189453H512
		h159.9707031C648.4472656,465.4072266,636.6826172,433.1616211,636.6826172,433.1616211z"/>
	<path style="fill:#FFFFFF;" d="M512,201.6523438c-59.597168,26.6621094-158.0019531,45.6254883-158.0019531,45.6254883v19.2832031
		H512h158.0019531V247.277832C670.0019531,247.277832,571.5966797,228.3144531,512,201.6523438z"/>
</g>
</svg>
