<?xml version="1.0" encoding="utf-8"?>
<!-- Generator: Adobe Illustrator 16.0.0, SVG Export Plug-In . SVG Version: 6.00 Build 0)  -->
<!DOCTYPE svg PUBLIC "-//W3C//DTD SVG 1.1//EN" "http://www.w3.org/Graphics/SVG/1.1/DTD/svg11.dtd">
<svg version="1.1" id="Layer_1" xmlns="http://www.w3.org/2000/svg" xmlns:xlink="http://www.w3.org/1999/xlink" x="0px" y="0px"
	 width="1024px" height="1024px" viewBox="0 0 1024 1024" style="enable-background:new 0 0 1024 1024;" xml:space="preserve">
<radialGradient id="SVGID_1_" cx="512" cy="953.4453125" r="301.7987976" gradientTransform="matrix(1 0 0 0.259392 0 706.1292114)" gradientUnits="userSpaceOnUse">
	<stop  offset="0" style="stop-color:#000000;stop-opacity:0.8"/>
	<stop  offset="1" style="stop-color:#FFFFFF;stop-opacity:0"/>
</radialGradient>
<path style="fill:url(#SVGID_1_);" d="M826.8671875,953.4404297c0,38.84375-140.9697266,70.3212891-314.8666992,70.3212891
	s-314.8676758-31.4775391-314.8676758-70.3212891c0-38.8447266,140.9707031-70.3115234,314.8676758-70.3115234
	S826.8671875,914.5957031,826.8671875,953.4404297z"/>
<path style="fill:#DB5461;" d="M852.4570312,340.456543C852.4570312,152.4267578,700.03125,0,512.0004883,0
	C323.9702148,0,171.543457,152.4267578,171.543457,340.456543c0,0-17.6611328,260.0024414,340.4570312,612.2407227
	C870.1191406,600.4589844,852.4570312,340.456543,852.4570312,340.456543z"/>
<g>
	<path style="fill:#DB5461;" d="M511.1791992,117.0712891c-121.8041992,0-220.5463867,98.7353516-220.5463867,220.5395508
		c0,121.8032227,98.7421875,220.5405273,220.5463867,220.5405273c121.7993164,0,220.5395508-98.7373047,220.5395508-220.5405273
		C731.71875,215.8066406,632.9785156,117.0712891,511.1791992,117.0712891z"/>
	<path style="fill:#FFFFFF;" d="M511.1791992,117.0712891c121.7993164,0,220.5395508,98.7353516,220.5395508,220.5395508
		c0,121.8032227-98.7402344,220.5405273-220.5395508,220.5405273c-121.8041992,0-220.5463867-98.7373047-220.5463867-220.5405273
		C290.6328125,215.8066406,389.375,117.0712891,511.1791992,117.0712891 M511.1791992,73.3085938
		c-35.6625977,0-70.2792969,6.9853516-102.8920898,20.7817383c-31.4794922,13.3237305-59.7426758,32.3701172-84.0009766,56.6333008
		c-24.2583008,24.2529297-43.3100586,52.515625-56.621582,83.9907227
		c-13.7978516,32.6171875-20.7885742,67.2275391-20.7885742,102.8964844c0,35.6577148,6.9907227,70.2783203,20.7885742,102.8969727
		c13.3115234,31.4750977,32.3632812,59.737793,56.621582,83.9902344
		c24.2583008,24.2529297,52.5214844,43.3095703,84.0009766,56.6328125
		c32.612793,13.7871094,67.2294922,20.78125,102.8920898,20.78125c35.6577148,0,70.2739258-6.9941406,102.8911133-20.78125
		c31.4755859-13.3232422,59.7373047-32.3798828,83.9970703-56.6328125
		c24.2568359-24.2524414,43.3085938-52.5151367,56.6269531-83.9902344
		c13.7919922-32.6186523,20.7880859-67.2392578,20.7880859-102.8969727c0-35.6689453-6.9960938-70.2792969-20.7880859-102.8964844
		c-13.3183594-31.4750977-32.3701172-59.737793-56.6269531-83.9907227
		c-24.2597656-24.2631836-52.5214844-43.3095703-83.9970703-56.6333008
		C581.453125,80.2939453,546.8369141,73.3085938,511.1791992,73.3085938L511.1791992,73.3085938z"/>
</g>
<g>
	<g>
		<rect x="408" y="257" style="fill:#FFFFFF;" width="22" height="138"/>
		<rect x="455" y="257" style="fill:#FFFFFF;" width="21" height="138"/>
		<rect x="502" y="257" style="fill:#FFFFFF;" width="20" height="138"/>
		<rect x="547" y="257" style="fill:#FFFFFF;" width="22" height="138"/>
		<rect x="594" y="257" style="fill:#FFFFFF;" width="22" height="138"/>
	</g>
	<path style="fill:#FFFFFF;" d="M628.0009766,403H512H395.9990234c0,0-10.9428711,30-32.8310547,39H512h148.8320312
		C638.9462891,433,628.0009766,403,628.0009766,403z"/>
	<path style="fill:#FFFFFF;" d="M512,187.6108398c-55.4467773,24.8056641-147,42.4487305-147,42.4487305V248h147h147v-17.9404297
		C659,230.0595703,567.4472656,212.4165039,512,187.6108398z"/>
</g>
</svg>
