<?xml version="1.0" encoding="utf-8"?>
<!-- Generator: Adobe Illustrator 16.0.0, SVG Export Plug-In . SVG Version: 6.00 Build 0)  -->
<!DOCTYPE svg PUBLIC "-//W3C//DTD SVG 1.1//EN" "http://www.w3.org/Graphics/SVG/1.1/DTD/svg11.dtd">
<svg version="1.1" xmlns="http://www.w3.org/2000/svg" xmlns:xlink="http://www.w3.org/1999/xlink" x="0px"
	 y="0px" width="1024px" height="1024px" viewBox="0 0 1024 1024" style="enable-background:new 0 0 1024 1024;"
	 xml:space="preserve">
<path style="fill:#DB5461;" d="M877.9375,365.9375C877.9375,163.8349609,714.1044922,0,512,0
	C309.8979492,0,146.0625,163.8349609,146.0625,365.9375c0,0-18.9829102,279.4619141,365.9375,658.0625
	C896.921875,645.3994141,877.9375,365.9375,877.9375,365.9375z"/>
<path style="fill:#DB5461;" d="M511.1181641,125.8334961c-130.9208984,0-237.0532227,106.125-237.0532227,237.0454102
	c0,130.9189453,106.1323242,237.0458984,237.0532227,237.0458984c130.9150391,0,237.0449219-106.1269531,237.0449219-237.0458984
	C748.1630859,231.9584961,642.0332031,125.8334961,511.1181641,125.8334961z"/>
<path style="fill:#FFFFFF;" d="M511.1181641,125.8334961c130.9150391,0,237.0449219,106.125,237.0449219,237.0454102
	c0,130.9189453-106.1298828,237.0458984-237.0449219,237.0458984c-130.9208984,0-237.0532227-106.1269531-237.0532227-237.0458984
	C274.0649414,231.9584961,380.1972656,125.8334961,511.1181641,125.8334961 M511.1181641,78.7954102
	c-38.3320312,0-75.5390625,7.5078125-110.5932617,22.3369141c-33.8354492,14.3208008-64.2133789,34.7929688-90.2875977,60.8720703
	c-26.0742188,26.0678711-46.5517578,56.4458008-60.859375,90.2768555
	c-14.8305664,35.0581055-22.3447266,72.2587891-22.3447266,110.5976562c0,38.3261719,7.5141602,75.5375977,22.3447266,110.5976562
	c14.3076172,33.8305664,34.7851562,64.2089844,60.859375,90.2763672
	c26.0742188,26.0683594,56.4521484,46.5507812,90.2875977,60.8710938
	c35.0541992,14.8193359,72.2612305,22.3369141,110.5932617,22.3369141c38.3261719,0,75.5332031-7.5175781,110.5917969-22.3369141
	c33.8310547-14.3203125,64.2080078-34.8027344,90.2832031-60.8710938
	c26.0722656-26.0673828,46.5498047-56.4458008,60.8652344-90.2763672
	c14.8242188-35.0600586,22.34375-72.2714844,22.34375-110.5976562c0-38.3388672-7.5195312-75.5395508-22.34375-110.5976562
	c-14.3154297-33.8310547-34.7929688-64.2089844-60.8652344-90.2768555
	c-26.0751953-26.0791016-56.4521484-46.5512695-90.2832031-60.8720703
	C586.6513672,86.3032227,549.4443359,78.7954102,511.1181641,78.7954102L511.1181641,78.7954102z"/>
<path style="fill:#FFFFFF;" d="M549.7158203,273.5898438c3.3046875-0.550293,4.9570312,1.6518555,4.9570312,4.4052734
	c-1.1025391,22.0239258-3.8544922,98.0078125-4.4072266,124.9882812
	c-0.5498047,24.7768555-1.6494141,85.894043-1.6494141,106.8173828c0,4.9550781,1.0996094,6.0566406,4.9541016,7.1582031
	l27.5302734,5.5058594c1.1025391,0,2.7539062,3.8544922,2.7539062,5.5058594c0,1.1015625,0,1.6523438-1.1015625,1.6523438
	c-13.2148438-0.5507812-39.09375-1.1015625-68.8261719-1.1015625c-30.2841797,0-56.1621094,0.5507812-67.1743164,1.1015625
	c-1.6508789,0-1.6508789-0.5507812-1.6508789-1.1015625c0-2.2021484,1.1000977-5.5058594,2.7519531-6.0566406l25.878418-6.0566406
	c3.8540039-1.1005859,6.0576172-2.203125,6.0576172-7.1572266c0-12.1142578-1.6523438-78.1865234-2.2036133-105.1665039
	c-0.5498047-22.5751953-2.2021484-80.9399414-2.7519531-94.7050781c-0.5512695-4.4047852-1.1020508-8.2592773-6.0566406-8.2592773
	l-24.777832-1.1010742c-1.6523438,0-3.8544922-3.8540039-3.8544922-7.1577148c0-0.5507812,0-1.1010742,1.1020508-1.1010742
	L549.7158203,273.5898438z M509.5229492,173.3793945c23.1235352,0,37.440918,17.0688477,37.440918,35.7900391
	c0,20.9223633-15.9677734,37.9916992-37.9931641,37.9916992c-19.2705078,0-40.1933594-13.7651367-40.1933594-36.340332
	c0-17.6191406,14.8652344-37.4414062,40.1933594-37.4414062H509.5229492z"/>
</svg>
