<?xml version="1.0" encoding="utf-8"?>
<!-- Generator: Adobe Illustrator 16.0.0, SVG Export Plug-In . SVG Version: 6.00 Build 0)  -->
<!DOCTYPE svg PUBLIC "-//W3C//DTD SVG 1.1//EN" "http://www.w3.org/Graphics/SVG/1.1/DTD/svg11.dtd">
<svg version="1.1" id="Layer_1" xmlns="http://www.w3.org/2000/svg" xmlns:xlink="http://www.w3.org/1999/xlink" x="0px" y="0px"
	 width="1024px" height="1024px" viewBox="0 0 1024 1024" enable-background="new 0 0 1024 1024" xml:space="preserve">
<polygon points="-1,1 -1,889 1.365,889 512,1024.238 1022.635,889 1023,889 1023,1 "/>
<path fill="#FFFFFF" d="M250.218,753.398l-0.909-0.416c0,0-0.014-0.497,0.027-1.403c0.06-0.897,0.079-2.248,0.275-3.899
	c0.164-1.666,0.454-3.656,0.87-5.917c0.421-2.258,0.995-4.773,1.744-7.478c0.39-1.344,0.816-2.738,1.27-4.182
	c0.48-1.427,1.021-2.887,1.563-4.4c1.163-2.984,2.489-6.101,4.078-9.226c0.747-1.591,1.642-3.133,2.521-4.715
	c0.437-0.792,0.904-1.576,1.368-2.368c0.491-0.775,0.968-1.562,1.478-2.338c1.979-3.143,4.259-6.173,6.63-9.16
	c1.248-1.45,2.478-2.908,3.781-4.316c0.646-0.709,1.312-1.396,1.98-2.076c0.692-0.665,1.382-1.329,2.068-1.99
	c1.346-1.343,2.835-2.556,4.277-3.759c1.482-1.182,2.926-2.353,4.49-3.369c3.007-2.14,6.196-3.903,9.299-5.375
	c1.583-0.705,3.104-1.38,4.665-1.896c0.773-0.266,1.515-0.541,2.272-0.763c0.761-0.204,1.509-0.405,2.243-0.603
	c5.888-1.492,11.022-1.431,14.444-0.904c1.71,0.18,3.043,0.64,3.924,0.855c0.876,0.273,1.344,0.419,1.344,0.419l0.066,0.998
	c0,0-0.419,0.24-1.206,0.69c-0.781,0.406-1.9,1.028-3.247,1.861c-2.712,1.601-6.279,3.991-10.039,7.162
	c-0.469,0.393-0.947,0.793-1.434,1.2c-0.482,0.41-0.955,0.869-1.444,1.301c-0.986,0.844-1.951,1.819-2.957,2.757
	c-1.987,1.94-4.021,4.011-6.072,6.248c-1.022,1.127-2.057,2.266-3.104,3.42c-1.029,1.189-2.07,2.394-3.117,3.604
	c-0.521,0.612-1.045,1.228-1.57,1.845c-0.509,0.639-1.024,1.274-1.562,1.891c-1.074,1.232-2.1,2.541-3.14,3.827
	c-2.127,2.551-4.16,5.207-6.268,7.775c-0.522,0.645-1.02,1.311-1.529,1.96c-0.527,0.639-1.058,1.27-1.562,1.918
	c-1.035,1.278-2.019,2.57-3.054,3.81c-2.023,2.505-4.019,4.938-5.944,7.25c-0.977,1.149-1.944,2.263-2.845,3.367
	c-0.953,1.075-1.867,2.124-2.731,3.144c-1.789,2.007-3.456,3.856-4.988,5.482c-1.536,1.624-2.916,3.036-4.09,4.19
	c-1.158,1.161-2.172,2.034-2.813,2.655C250.607,753.087,250.218,753.398,250.218,753.398z M177.118,832.273
	c1.285-0.694,3.185-1.722,5.573-3.013c2.374-1.297,5.244-2.865,8.527-4.659c3.281-1.78,6.97-3.782,10.986-5.962
	c2.011-1.093,4.075-2.252,6.256-3.405c2.152-1.194,4.365-2.432,6.677-3.671c4.56-2.552,9.4-5.232,14.349-8.118
	c2.506-1.406,4.986-2.93,7.538-4.443c1.271-0.762,2.551-1.529,3.837-2.3c1.273-0.797,2.553-1.598,3.838-2.401
	c5.168-3.199,10.314-6.646,15.452-10.187c2.536-1.82,5.076-3.635,7.582-5.506c1.256-0.932,2.495-1.878,3.721-2.838
	c1.22-0.977,2.436-1.95,3.647-2.919c2.43-1.933,4.771-3.955,7.057-5.99c1.138-1.024,2.27-2.044,3.393-3.056
	c1.109-1.031,2.186-2.092,3.25-3.14c1.08-1.028,2.128-2.079,3.141-3.153c1.012-1.068,2.015-2.127,3.007-3.174
	c1.914-2.183,3.819-4.256,5.531-6.438c0.859-1.079,1.706-2.145,2.542-3.193c0.792-1.086,1.573-2.155,2.342-3.208
	c1.554-2.075,2.874-4.246,4.192-6.254c5.14-8.188,8.213-15.68,9.886-20.999c0.934-2.616,1.327-4.813,1.711-6.238
	c0.32-1.45,0.491-2.224,0.491-2.224l-0.905-0.426c0,0-0.517,0.597-1.485,1.714c-0.939,1.124-2.285,2.774-4.09,4.774
	c-3.509,4.058-8.611,9.613-15.137,15.654c-1.671,1.483-3.295,3.098-5.135,4.639c-0.896,0.785-1.806,1.584-2.729,2.395
	c-0.946,0.79-1.906,1.591-2.879,2.402c-1.9,1.655-3.994,3.233-6.033,4.919c-1.052,0.815-2.115,1.641-3.188,2.473
	c-1.059,0.843-2.147,1.678-3.261,2.506c-2.226,1.658-4.485,3.342-6.771,5.046c-2.325,1.677-4.678,3.374-7.048,5.084
	c-2.403,1.692-4.825,3.399-7.255,5.111c-2.419,1.737-4.9,3.439-7.376,5.147c-4.909,3.486-9.933,6.886-14.79,10.403
	c-1.226,0.869-2.447,1.734-3.662,2.595c-1.205,0.884-2.403,1.764-3.595,2.638c-2.376,1.755-4.761,3.468-7.04,5.243
	c-4.607,3.499-9.002,6.995-13.104,10.441c-2.039,1.73-4.005,3.456-5.906,5.116c-1.878,1.69-3.663,3.382-5.386,4.971
	c-1.695,1.638-3.294,3.238-4.805,4.761c-1.491,1.559-2.89,3.047-4.187,4.458c-2.557,2.882-4.725,5.433-6.405,7.641
	c-1.731,2.145-2.918,4.006-3.783,5.201c-0.844,1.219-1.264,1.895-1.264,1.895l0.679,0.734
	C175.103,833.32,175.823,832.973,177.118,832.273z M898.165,74.142c0,0-1.601,2.811-4.598,8.077
	c-2.996,5.266-7.212,13.068-13.079,22.712c-1.439,2.423-2.956,4.977-4.547,7.654c-1.586,2.678-3.215,5.496-5.059,8.352
	c-3.605,5.75-7.505,11.967-11.67,18.609c-4.314,6.54-8.904,13.499-13.742,20.834c-2.503,3.61-5.07,7.312-7.698,11.103
	c-1.311,1.896-2.636,3.813-3.977,5.751c-1.343,1.936-2.671,3.912-4.109,5.846c-2.821,3.902-5.701,7.885-8.637,11.944
	c-1.466,2.029-2.946,4.076-4.44,6.142c-1.539,2.034-3.093,4.085-4.659,6.155c-3.12,4.144-6.294,8.358-9.517,12.637
	c-3.226,4.274-6.664,8.497-10.058,12.84c-6.723,8.735-13.97,17.45-21.264,26.434c-1.808,2.258-3.691,4.478-5.584,6.708
	c-1.888,2.235-3.784,4.481-5.69,6.737c-3.817,4.509-7.609,9.107-11.601,13.611c-3.951,4.535-7.935,9.108-11.946,13.713
	c-4.04,4.583-8.175,9.143-12.302,13.757c-2.066,2.304-4.14,4.615-6.219,6.933c-2.116,2.285-4.238,4.577-6.366,6.875
	c-4.247,4.601-8.463,9.272-12.791,13.877c-17.307,18.425-35.167,36.898-53.299,55.121c-9.114,9.069-18.165,18.197-27.377,27.106
	c-9.135,8.981-18.323,17.849-27.436,26.649c-4.587,4.373-9.155,8.727-13.7,13.061c-4.526,4.353-9.061,8.655-13.584,12.916
	c-9.052,8.521-17.993,16.938-26.79,25.218c-17.689,16.484-34.791,32.42-51.009,47.532c-16.227,15.134-31.57,29.443-45.735,42.653
	c-28.285,26.491-51.627,48.857-67.767,64.723c-3.748,3.648-7.076,6.95-10.018,9.887c-1.443-1.046-2.873-2.066-4.362-3.117
	l-0.679-0.48l-0.767-0.497l-1.562-0.994l-1.566-0.985l-1.589-0.891c-2.096-1.214-4.305-2.26-6.52-3.273
	c-0.812-0.358-1.64-0.683-2.468-1.009c0.175-1.53,0.33-3.63,0.919-6.219c1.002-5.974,3.349-14.593,7.878-24.921
	c1.153-2.575,2.336-5.29,3.773-8.062c1.341-2.808,2.93-5.668,4.542-8.659c3.331-5.941,7.126-12.261,11.4-18.912
	c4.281-6.652,8.995-13.651,13.965-21.115c4.948-7.544,10.148-15.257,15.574-23.341c11.033-16.07,23.445-33.148,37.074-50.826
	c13.619-17.687,28.492-35.944,44.285-54.501c3.977-4.617,7.938-9.31,12.034-13.954c4.072-4.662,8.142-9.382,12.333-14.055
	c4.169-4.689,8.357-9.41,12.638-14.1c4.252-4.711,8.53-9.442,12.867-14.162c2.163-2.363,4.331-4.73,6.502-7.102
	c2.193-2.354,4.39-4.712,6.59-7.073c4.409-4.717,8.831-9.447,13.262-14.188c8.863-9.479,17.855-18.933,26.889-28.333
	c8.954-9.484,18.062-18.801,27.073-28.149c4.544-4.632,9.08-9.254,13.603-13.863c2.26-2.306,4.517-4.607,6.77-6.906
	c2.271-2.279,4.537-4.555,6.799-6.826c4.537-4.528,9.016-9.083,13.546-13.534c4.52-4.463,9.017-8.904,13.486-13.317
	c4.44-4.447,8.987-8.719,13.437-13.036c4.479-4.283,8.849-8.623,13.301-12.792c4.436-4.191,8.833-8.347,13.189-12.463
	c4.333-4.145,8.754-8.101,13.051-12.105c2.157-1.993,4.302-3.976,6.435-5.947c1.065-0.986,2.129-1.97,3.188-2.951
	c1.074-0.963,2.145-1.924,3.213-2.882c4.269-3.836,8.484-7.626,12.645-11.365c4.122-3.788,8.308-7.377,12.393-10.962
	c4.093-3.578,8.123-7.101,12.087-10.565c4.011-3.409,7.954-6.76,11.824-10.049c1.937-1.646,3.854-3.275,5.754-4.89
	c0.95-0.807,1.895-1.61,2.835-2.409c0.955-0.78,1.905-1.557,2.851-2.329c3.772-3.104,7.466-6.143,11.076-9.113
	c3.61-2.972,7.114-5.911,10.626-8.646c3.487-2.773,6.885-5.474,10.188-8.101c3.314-2.612,6.475-5.237,9.653-7.618
	c6.303-4.847,12.201-9.384,17.656-13.579c5.528-4.104,10.607-7.873,15.195-11.278c2.293-1.708,4.464-3.324,6.507-4.846
	c2.048-1.516,4.009-2.874,5.809-4.176c3.614-2.588,6.689-4.79,9.182-6.575c4.973-3.598,7.627-5.518,7.627-5.518l-0.525-0.851
	c-0.001,0-2.867,1.588-8.238,4.564c-2.682,1.503-5.989,3.357-9.878,5.537c-1.939,1.1-4.048,2.245-6.249,3.544
	c-2.19,1.316-4.519,2.713-6.978,4.19c-4.914,2.966-10.378,6.223-16.266,9.868c-5.826,3.745-12.126,7.794-18.856,12.12
	c-3.389,2.138-6.758,4.521-10.286,6.895c-3.514,2.397-7.128,4.864-10.838,7.395c-3.732,2.504-7.456,5.212-11.289,7.959
	c-3.831,2.753-7.749,5.57-11.752,8.447c-0.998,0.723-2.001,1.45-3.01,2.181c-0.994,0.75-1.992,1.502-2.996,2.259
	c-2.008,1.515-4.035,3.043-6.082,4.587c-4.095,3.089-8.267,6.236-12.51,9.438c-4.17,3.294-8.41,6.644-12.716,10.046
	c-4.299,3.411-8.707,6.828-13.05,10.437c-4.358,3.593-8.777,7.235-13.25,10.921c-1.118,0.923-2.238,1.849-3.363,2.777
	c-1.108,0.946-2.22,1.896-3.334,2.848c-2.229,1.905-4.47,3.822-6.724,5.749c-4.487,3.876-9.097,7.717-13.606,11.75
	c-4.525,4.019-9.094,8.075-13.7,12.166c-4.645,4.052-9.163,8.311-13.783,12.529c-4.589,4.25-9.27,8.474-13.852,12.85
	c-4.605,4.354-9.238,8.733-13.896,13.136c-4.63,4.428-9.205,8.957-13.842,13.461c-2.314,2.255-4.635,4.516-6.958,6.779
	c-2.297,2.289-4.598,4.582-6.902,6.878c-4.592,4.609-9.198,9.232-13.812,13.864c-9.124,9.36-18.321,18.727-27.355,28.233
	c-9.048,9.5-18.042,19.04-26.931,28.629c-4.455,4.784-8.869,9.59-13.228,14.426c-2.184,2.413-4.365,4.822-6.542,7.227
	c-2.161,2.422-4.318,4.839-6.471,7.252c-4.329,4.804-8.572,9.654-12.775,14.498c-4.228,4.819-8.355,9.69-12.462,14.526
	c-4.136,4.809-8.153,9.676-12.153,14.496c-4.023,4.799-7.901,9.667-11.766,14.476c-15.457,19.24-29.798,38.344-42.798,56.886
	c-12.996,18.545-24.63,36.54-34.79,53.49c-4.995,8.536-9.771,16.758-14.1,24.501c-4.41,7.758-8.633,15.176-12.436,22.262
	c-3.801,7.092-7.142,13.879-10.013,20.258c-1.387,3.219-2.743,6.285-3.859,9.306c-1.207,2.974-2.166,5.895-3.09,8.651
	c-3.67,11.06-4.997,20.2-5.39,26.387c-0.256,2.435-0.203,4.432-0.185,5.952c-3.301-1.219-6.701-2.192-10.142-2.908
	c-9.601-2.009-19.499-1.743-28.586,0.202c-9.107,1.938-17.537,5.277-25.098,9.437c-7.611,4.1-14.466,8.913-20.73,14.008
	c-6.275,5.091-11.935,10.509-17.157,15.985c-10.402,11.002-18.952,22.341-26.125,33.196c-14.331,21.751-23.054,41.619-28.011,55.818
	c-2.483,7.11-3.965,12.841-4.897,16.749c-0.428,1.968-0.752,3.471-0.935,4.494c-0.195,1.018-0.295,1.542-0.295,1.542l0.964,0.266
	c0,0,0.193-0.495,0.566-1.452c0.36-0.96,0.948-2.369,1.713-4.196c1.515-3.662,3.995-8.923,7.385-15.456
	c6.854-13.012,17.762-31.081,33.434-50.534c7.827-9.706,16.845-19.753,27.203-29.267c10.352-9.453,22.121-18.491,35.246-24.862
	c6.551-3.176,13.436-5.549,20.397-6.804c6.972-1.227,13.987-1.1,20.73,0.41c3.372,0.766,6.683,1.88,9.88,3.38
	c1.587,0.78,3.18,1.558,4.718,2.491l1.165,0.668l1.102,0.721l1.106,0.712c0.188,0.123,0.363,0.225,0.562,0.364l0.612,0.438
	c0.478,0.343,0.971,0.699,1.46,1.052c-0.354,0.357-0.553,0.559-0.553,0.559l0.669,0.744c0,0,0.276-0.219,0.806-0.639
	c0.856,0.62,1.712,1.245,2.546,1.866c1.64,1.205,3.178,2.402,4.642,3.585c1.413,1.171,2.732,2.344,3.672,3.35l0.613,0.698
	c0.119,0.184,0.32,0.415,0.399,0.537c0,0.062,0.102,0.154,0.094,0.146l-0.005,0.002c0.004,0.002-0.035,0.002,0.008,0l0.003,0.002
	c0.005,0.001,0.007-0.02-0.041,0.078c-0.014,0.035-0.02,0.072-0.02,0.113l-0.144,0.318l-0.136,0.335l-0.225,0.417l-0.216,0.421
	c-0.079,0.147-0.19,0.315-0.283,0.473c-0.205,0.325-0.356,0.627-0.61,0.985c-1.805,2.765-4.383,5.923-6.996,9.041
	c-5.452,6.386-10.882,12.747-16.27,19.059c-2.694,3.086-5.285,6.251-8.061,9.209c-2.732,3-5.381,6.053-8.142,8.969
	c-2.77,2.912-5.523,5.806-8.256,8.68c-2.8,2.813-5.58,5.607-8.337,8.379c-11.152,10.97-22.347,21.194-33.25,30.604
	c-2.746,2.333-5.455,4.634-8.123,6.9c-2.667,2.271-5.387,4.395-8.013,6.547c-1.312,1.078-2.614,2.147-3.904,3.207
	c-1.312,1.032-2.612,2.057-3.9,3.07c-2.583,2.024-5.118,4.012-7.6,5.958c-10.04,7.649-19.333,14.604-27.753,20.535
	c-2.096,1.5-4.125,2.952-6.083,4.354c-1.981,1.369-3.892,2.689-5.728,3.958c-1.834,1.276-3.593,2.501-5.275,3.671
	c-1.696,1.149-3.313,2.246-4.849,3.286c-3.071,2.088-5.815,3.954-8.203,5.577c-2.407,1.598-4.455,2.957-6.115,4.059
	c-3.308,2.231-5.076,3.423-5.076,3.424l0.473,0.881c0,0,1.959-0.847,5.625-2.433c1.83-0.808,4.087-1.805,6.741-2.977
	c2.644-1.195,5.655-2.623,9.027-4.231c1.685-0.808,3.473-1.636,5.32-2.558c1.843-0.932,3.771-1.906,5.78-2.923
	c2.008-1.024,4.098-2.091,6.266-3.197c2.143-1.154,4.363-2.351,6.656-3.586c9.2-4.914,19.342-10.896,30.29-17.66
	c2.699-1.75,5.455-3.537,8.264-5.357c1.403-0.914,2.82-1.838,4.249-2.77c1.41-0.96,2.833-1.93,4.268-2.907
	c2.846-1.988,5.79-3.948,8.692-6.058c2.907-2.109,5.858-4.251,8.85-6.422c11.829-8.875,23.991-18.707,36.023-29.545
	c2.979-2.745,5.981-5.513,9.006-8.3c2.938-2.883,5.898-5.787,8.876-8.708c2.967-2.934,5.83-6.011,8.775-9.037
	c2.953-3.023,5.708-6.243,8.574-9.393c1.414-1.576,2.831-3.154,4.25-4.735c1.376-1.56,2.755-3.12,4.136-4.685
	c2.779-3.149,5.584-6.319,8.416-9.632c2.829-3.346,5.694-6.704,8.571-11.016c0.357-0.509,0.719-1.137,1.073-1.712
	c0.178-0.299,0.355-0.576,0.532-0.894l0.526-0.985l0.517-0.99l0.501-1.123l0.484-1.143l0.472-1.398c0.315-0.901,0.542-1.958,0.733-3
	c0.211-1.037,0.238-2.101,0.304-3.152c-0.018-2.108-0.286-4.23-0.995-6.228c-0.307-1.014-0.763-1.971-1.229-2.923
	c-0.467-0.963-1-1.732-1.537-2.583c-0.519-0.751-0.998-1.339-1.514-2.004c-0.499-0.592-0.991-1.127-1.495-1.686
	c-1.978-2.077-3.873-3.685-5.73-5.209c-1.204-0.962-2.392-1.873-3.572-2.759c3.1-2.485,6.561-5.26,10.402-8.34
	c17.605-14.199,42.724-34.496,72.62-59.17c14.938-12.351,31.083-25.777,48.028-40.152c16.954-14.36,34.726-29.65,52.919-45.7
	c4.543-4.021,9.124-8.075,13.737-12.158c4.578-4.126,9.189-8.282,13.828-12.463c4.644-4.176,9.301-8.396,13.941-12.684
	c4.64-4.289,9.303-8.598,13.984-12.925c9.273-8.758,18.709-17.49,27.947-26.516c9.319-8.935,18.495-18.104,27.729-27.21
	c18.237-18.453,36.264-37.137,53.445-56.073c4.313-4.716,8.518-9.503,12.75-14.217c2.101-2.372,4.195-4.737,6.284-7.097
	c2.054-2.393,4.101-4.778,6.143-7.157c4.066-4.771,8.154-9.471,12.135-14.207c3.931-4.78,7.832-9.525,11.702-14.231
	c3.905-4.674,7.605-9.458,11.316-14.154c1.85-2.353,3.691-4.694,5.522-7.023c1.835-2.327,3.657-4.644,5.403-7.002
	c7.046-9.385,14.002-18.509,20.418-27.666c3.216-4.571,6.473-9.012,9.522-13.504c3.044-4.495,6.041-8.921,8.988-13.273
	c1.46-2.185,2.907-4.351,4.342-6.498c1.389-2.179,2.764-4.339,4.127-6.479c2.724-4.277,5.396-8.474,8.015-12.584
	c1.325-2.043,2.539-4.131,3.767-6.177c1.223-2.049,2.432-4.075,3.626-6.078c2.383-4.007,4.71-7.922,6.979-11.738
	c4.31-7.762,8.398-15.125,12.241-22.045c3.616-7.035,7-13.62,10.13-19.709c1.59-3.026,2.967-6.01,4.304-8.847
	c1.331-2.838,2.602-5.544,3.808-8.113c4.943-10.206,8.185-18.529,10.609-24.089c2.336-5.596,3.583-8.582,3.583-8.583L898.165,74.142
	z"/>
</svg>
