<?xml version="1.0" encoding="utf-8"?>
<!-- Generator: Adobe Illustrator 16.0.0, SVG Export Plug-In . SVG Version: 6.00 Build 0)  -->
<!DOCTYPE svg PUBLIC "-//W3C//DTD SVG 1.1//EN" "http://www.w3.org/Graphics/SVG/1.1/DTD/svg11.dtd">
<svg version="1.1" id="marker-information" xmlns="http://www.w3.org/2000/svg" xmlns:xlink="http://www.w3.org/1999/xlink" x="0px" y="0px"
	 width="1024px" height="1024px" viewBox="0 0 1024 1024" style="enable-background:new 0 0 1024 1024;" xml:space="preserve">
<radialGradient id="SVGID_1_" cx="512" cy="953.4453125" r="301.7987976" gradientTransform="matrix(1 0 0 0.259392 0 706.1292114)" gradientUnits="userSpaceOnUse">
	<stop  offset="0" style="stop-color:#000000;stop-opacity:0.8"/>
	<stop  offset="1" style="stop-color:#FFFFFF;stop-opacity:0"/>
</radialGradient>
<path style="fill:url(#SVGID_1_);" d="M826.8671875,953.4404297c0,38.84375-140.9697266,70.3212891-314.8666992,70.3212891
	s-314.8676758-31.4775391-314.8676758-70.3212891c0-38.8447266,140.9707031-70.3115234,314.8676758-70.3115234
	S826.8671875,914.5957031,826.8671875,953.4404297z"/>
<path style="fill:#DB5461;" d="M852.4570312,340.456543C852.4570312,152.4267578,700.03125,0,512.0004883,0
	C323.9702148,0,171.543457,152.4267578,171.543457,340.456543c0,0-17.6611328,260.0024414,340.4570312,612.2407227
	C870.1191406,600.4589844,852.4570312,340.456543,852.4570312,340.456543z"/>
<g>
	<path style="fill:#DB5461;" d="M511.1791992,117.0712891c-121.8041992,0-220.5463867,98.7353516-220.5463867,220.5395508
		c0,121.8032227,98.7421875,220.5405273,220.5463867,220.5405273c121.7993164,0,220.5395508-98.7373047,220.5395508-220.5405273
		C731.71875,215.8066406,632.9785156,117.0712891,511.1791992,117.0712891z"/>
	<path style="fill:#FFFFFF;" d="M511.1791992,117.0712891c121.7993164,0,220.5395508,98.7353516,220.5395508,220.5395508
		c0,121.8032227-98.7402344,220.5405273-220.5395508,220.5405273c-121.8041992,0-220.5463867-98.7373047-220.5463867-220.5405273
		C290.6328125,215.8066406,389.375,117.0712891,511.1791992,117.0712891 M511.1791992,73.3085938
		c-35.6625977,0-70.2792969,6.9853516-102.8920898,20.7817383c-31.4794922,13.3237305-59.7426758,32.3701172-84.0009766,56.6333008
		c-24.2583008,24.2529297-43.3100586,52.515625-56.621582,83.9907227
		c-13.7978516,32.6171875-20.7885742,67.2275391-20.7885742,102.8964844c0,35.6577148,6.9907227,70.2783203,20.7885742,102.8969727
		c13.3115234,31.4750977,32.3632812,59.737793,56.621582,83.9902344
		c24.2583008,24.2529297,52.5214844,43.3095703,84.0009766,56.6328125
		c32.612793,13.7871094,67.2294922,20.78125,102.8920898,20.78125c35.6577148,0,70.2739258-6.9941406,102.8911133-20.78125
		c31.4755859-13.3232422,59.7373047-32.3798828,83.9970703-56.6328125
		c24.2568359-24.2524414,43.3085938-52.5151367,56.6269531-83.9902344
		c13.7919922-32.6186523,20.7880859-67.2392578,20.7880859-102.8969727c0-35.6689453-6.9960938-70.2792969-20.7880859-102.8964844
		c-13.3183594-31.4750977-32.3701172-59.737793-56.6269531-83.9907227
		c-24.2597656-24.2631836-52.5214844-43.3095703-83.9970703-56.6333008
		C581.453125,80.2939453,546.8369141,73.3085938,511.1791992,73.3085938L511.1791992,73.3085938z"/>
</g>
<g>
	<path style="fill:#FFFFFF;" d="M547.0898438,254.5395508c3.0742188-0.512207,4.6113281,1.5366211,4.6113281,4.0981445
		c-1.0253906,20.4907227-3.5859375,91.1835938-4.0996094,116.2851562
		c-0.5117188,23.0517578-1.5351562,79.9135742-1.5351562,99.3798828c0,4.6103516,1.0234375,5.6347656,4.609375,6.6591797
		l25.6132812,5.1230469c1.0253906,0,2.5625,3.5859375,2.5625,5.1225586c0,1.0244141,0,1.5366211-1.0253906,1.5366211
		c-12.2949219-0.512207-36.3710938-1.0244141-64.0332031-1.0244141c-28.175293,0-52.2514648,0.512207-62.4970703,1.0244141
		c-1.5366211,0-1.5366211-0.512207-1.5366211-1.0244141c0-2.0488281,1.0244141-5.1225586,2.5610352-5.6347656l24.0766602-5.6352539
		c3.5859375-1.0244141,5.6352539-2.0488281,5.6352539-6.6591797c0-11.2700195-1.5371094-72.7421875-2.0493164-97.8432617
		c-0.512207-21.0029297-2.0488281-75.3037109-2.5615234-88.1103516c-0.512207-4.0981445-1.0244141-7.684082-5.6347656-7.684082
		l-23.0517578-1.0244141c-1.5371094,0-3.5859375-3.5859375-3.5859375-6.659668c0-0.512207,0-1.0244141,1.0244141-1.0244141
		L547.0898438,254.5395508z M509.6948242,161.3066406c21.5141602,0,34.8344727,15.8803711,34.8344727,33.2978516
		c0,19.4658203-14.8554688,35.3461914-35.347168,35.3461914c-17.9291992,0-37.3955078-12.8066406-37.3955078-33.8095703
		c0-16.3925781,13.8310547-34.8344727,37.3955078-34.8344727H509.6948242z"/>
</g>
</svg>
