<?xml version="1.0" encoding="utf-8"?>
<!-- Generator: Adobe Illustrator 16.0.0, SVG Export Plug-In . SVG Version: 6.00 Build 0)  -->
<!DOCTYPE svg PUBLIC "-//W3C//DTD SVG 1.1//EN" "http://www.w3.org/Graphics/SVG/1.1/DTD/svg11.dtd">
<svg version="1.1" id="marker-user" xmlns="http://www.w3.org/2000/svg" xmlns:xlink="http://www.w3.org/1999/xlink" x="0px"
	 y="0px" width="1024px" height="1024px" viewBox="0 0 1024 1024" enable-background="new 0 0 1024 1024" xml:space="preserve">
<circle id="marker-user-bg" cx="512" cy="512" r="512"/>
<path id="inner-white" fill="#FFFFFF" d="M512,76.577c58.799,0,115.818,11.507,169.474,34.202
	c51.846,21.929,98.415,53.33,138.417,93.331c40.001,40.001,71.402,86.571,93.331,138.417
	c22.694,53.656,34.201,110.675,34.201,169.474c0,58.799-11.507,115.818-34.201,169.474c-21.929,51.846-53.33,98.415-93.331,138.417
	c-40.002,40.001-86.571,71.402-138.417,93.331C627.818,935.916,570.799,947.423,512,947.423
	c-58.799,0-115.818-11.507-169.474-34.201c-51.845-21.929-98.415-53.33-138.417-93.331c-40.001-40.002-71.402-86.571-93.331-138.417
	C88.084,627.818,76.577,570.799,76.577,512c0-58.799,11.507-115.818,34.202-169.474c21.929-51.845,53.33-98.415,93.331-138.417
	c40.001-40.001,86.571-71.402,138.417-93.331C396.182,88.084,453.201,76.577,512,76.577 M512,37C249.665,37,37,249.665,37,512
	c0,262.335,212.665,475,475,475c262.335,0,475-212.665,475-475C987,249.665,774.335,37,512,37L512,37z"/>
</svg>
