<?xml version="1.0" encoding="utf-8"?>
<!-- Generator: Adobe Illustrator 16.0.0, SVG Export Plug-In . SVG Version: 6.00 Build 0)  -->
<!DOCTYPE svg PUBLIC "-//W3C//DTD SVG 1.1//EN" "http://www.w3.org/Graphics/SVG/1.1/DTD/svg11.dtd">
<svg version="1.1" xmlns="http://www.w3.org/2000/svg" xmlns:xlink="http://www.w3.org/1999/xlink" x="0px"
	 y="0px" width="1024px" height="1024px" viewBox="0 0 1024 1024" style="enable-background:new 0 0 1024 1024;"
	 xml:space="preserve">
<path style="fill:#DB5461;" d="M877.9375,365.9375C877.9375,163.8349609,714.1044922,0,512,0
	C309.8984375,0,146.0625,163.8349609,146.0625,365.9375c0,0-18.9829102,279.4619141,365.9375,658.0625
	C896.921875,645.3994141,877.9375,365.9375,877.9375,365.9375z"/>
<g>
	<path style="fill:#DB5461;" d="M748.1640625,362.8774414c0,130.9165039-106.1289062,237.0463867-237.0458984,237.0463867
		c-130.9150391,0-237.0561523-106.1298828-237.0561523-237.0463867c0-63.8452148,25.2480469-121.7792969,66.2856445-164.4077148
		c1.0527344-1.0961914,2.1171875-2.1816406,3.1914062-3.2568359
		c42.8974609-42.8642578,102.1425781-69.3813477,167.5791016-69.3813477
		C642.0351562,125.831543,748.1640625,231.9619141,748.1640625,362.8774414z"/>
	<path style="fill:#FFFFFF;" d="M511.1181641,125.8334961c130.9150391,0,237.0449219,106.125,237.0449219,237.0454102
		c0,130.9189453-106.1298828,237.0458984-237.0449219,237.0458984c-130.9208984,0-237.0532227-106.1269531-237.0532227-237.0458984
		C274.0649414,231.9584961,380.1972656,125.8334961,511.1181641,125.8334961 M511.1181641,78.7954102
		c-38.3320312,0-75.5390625,7.5078125-110.5927734,22.3369141c-33.8359375,14.3208008-64.2138672,34.7929688-90.2880859,60.8720703
		c-26.0742188,26.0678711-46.5517578,56.4458008-60.859375,90.2768555
		c-14.8305664,35.0581055-22.3447266,72.2587891-22.3447266,110.5976562c0,38.3261719,7.5141602,75.5371094,22.3447266,110.5976562
		c14.3076172,33.8300781,34.7851562,64.2089844,60.859375,90.2763672
		c26.0742188,26.0683594,56.4521484,46.5507812,90.2880859,60.8710938
		c35.0537109,14.8193359,72.2607422,22.3369141,110.5927734,22.3369141c38.3261719,0,75.5332031-7.5175781,110.5917969-22.3369141
		c33.8310547-14.3203125,64.2080078-34.8027344,90.2832031-60.8710938
		c26.0722656-26.0673828,46.5498047-56.4462891,60.8652344-90.2763672
		c14.8242188-35.0605469,22.34375-72.2714844,22.34375-110.5976562c0-38.3388672-7.5195312-75.5395508-22.34375-110.5976562
		c-14.3154297-33.8310547-34.7929688-64.2089844-60.8652344-90.2768555
		c-26.0751953-26.0791016-56.4521484-46.5512695-90.2832031-60.8720703
		C586.6513672,86.3032227,549.4443359,78.7954102,511.1181641,78.7954102L511.1181641,78.7954102z"/>
</g>
<path style="fill:#FFFFFF;" d="M662.4453125,323.1513672c-16.1972656-3.1064453-37.6728516-4.9980469-61.2333984-4.9980469
	s-45.0361328,1.8916016-61.2333984,4.9980469c-18.4980469,3.5361328-30.1279297,8.652832-30.1279297,14.3496094v97.8105469
	c0,56.9873047,40.9082031,103.1845703,91.3613281,103.1845703c50.4541016,0,91.3613281-46.1972656,91.3613281-103.1845703
	v-97.8105469C692.5732422,331.8041992,680.9433594,326.6875,662.4453125,323.1513672z M525.2929688,386.4628906
	l56.0419922-15.0166016c4.1708984,15.5727539-5.0400391,31.3818359-20.5136719,35.5283203
	S529.4648438,402.0351562,525.2929688,386.4628906z M562.5175781,486.9042969
	c0-21.4970703,17.3242188-38.6953125,38.6943359-38.6953125s38.6943359,17.1982422,38.6943359,38.6953125H562.5175781z
	 M643.6640625,405.7851562c-15.4736328-4.1464844-24.6845703-19.9555664-20.5126953-35.5288086l56.0419922,15.0161133
	C675.0205078,400.8457031,659.140625,409.9306641,643.6640625,405.7851562z"/>
<path style="fill:#DB5461;" d="M530.9550781,209.4116211c-1.0634766,0.5161133-6.3173828,2.9345703-17.7646484,5.331543
	c-11.8232422,2.4716797-32.8027344,5.4169922-65.7041016,5.4169922c-32.9003906,0-53.890625-2.9453125-65.7148438-5.4169922
	c-11.4570312-2.3969727-16.7402344-4.8154297-17.8046875-5.331543l-20.4296875-14.1987305
	c-1.0742188,1.0751953-2.046875,2.1606445-3.1005859,3.2568359l0.6630859,24.0229492v127.90625
	c0,31.2885742,10.765625,60.7827148,30.4882812,83.0629883c20.1953125,22.7978516,47.140625,35.3525391,75.9677734,35.3525391
	s55.7021484-12.5546875,75.8984375-35.3525391c19.7236328-22.2802734,30.4648438-51.7744141,30.4648438-83.0629883v-157.034668
	L530.9550781,209.4116211z M538.8710938,350.3989258c0,56.987793-40.9091797,103.1850586-91.3613281,103.1850586
	c-50.453125,0-91.3613281-46.1972656-91.3613281-103.1850586v-127.90625c0,0,20.9375,12.8979492,91.3613281,12.8979492
	c70.4228516,0,91.3613281-12.8979492,91.3613281-12.8979492V350.3989258z M488.890625,291.8198242
	c-13.9511719,0-25.2587891,12.3608398-25.2587891,25.2587891h50.5175781
	C514.1494141,304.1806641,502.8427734,291.8198242,488.890625,291.8198242z M449.6591797,406.2910156
	c21.3681641,0,38.6943359-18.2724609,38.6943359-38.6948242h-77.3886719
	C410.9648438,388.0185547,428.2910156,406.2910156,449.6591797,406.2910156z M467.1904297,382.644043
	c-4.375,5.3745117-10.7275391,8.2333984-17.53125,8.2333984s-13.15625-2.8588867-17.53125-8.2333984H467.1904297z
	 M410.4277344,291.8198242c-13.9521484,0-25.2597656,12.3608398-25.2597656,25.2587891h50.5175781
	C435.6855469,304.1806641,424.3789062,291.8198242,410.4277344,291.8198242z M410.9648438,367.5961914
	c0,20.4223633,17.3261719,38.6948242,38.6943359,38.6948242s38.6943359-18.2724609,38.6943359-38.6948242H410.9648438z
	 M449.6591797,390.8774414c-6.8037109,0-13.15625-2.8588867-17.53125-8.2333984h35.0625
	C462.8154297,388.0185547,456.4628906,390.8774414,449.6591797,390.8774414z M410.4277344,291.8198242
	c-13.9521484,0-25.2597656,12.3608398-25.2597656,25.2587891h50.5175781
	C435.6855469,304.1806641,424.3789062,291.8198242,410.4277344,291.8198242z M488.890625,291.8198242
	c-13.9511719,0-25.2587891,12.3608398-25.2587891,25.2587891h50.5175781
	C514.1494141,304.1806641,502.8427734,291.8198242,488.890625,291.8198242z M488.890625,291.8198242
	c-13.9511719,0-25.2587891,12.3608398-25.2587891,25.2587891h50.5175781
	C514.1494141,304.1806641,502.8427734,291.8198242,488.890625,291.8198242z M449.6591797,406.2910156
	c21.3681641,0,38.6943359-18.2724609,38.6943359-38.6948242h-77.3886719
	C410.9648438,388.0185547,428.2910156,406.2910156,449.6591797,406.2910156z M467.1904297,382.644043
	c-4.375,5.3745117-10.7275391,8.2333984-17.53125,8.2333984s-13.15625-2.8588867-17.53125-8.2333984H467.1904297z
	 M410.4277344,291.8198242c-13.9521484,0-25.2597656,12.3608398-25.2597656,25.2587891h50.5175781
	C435.6855469,304.1806641,424.3789062,291.8198242,410.4277344,291.8198242z"/>
<g>
	<path style="fill:#FFFFFF;" d="M447.5097656,235.390625c-70.4248047,0-91.3613281-12.8979492-91.3613281-12.8979492v127.90625
		c0,56.987793,40.9033203,103.1850586,91.3613281,103.1850586c50.4570312,0,91.3613281-46.1972656,91.3613281-103.1850586
		v-127.90625C538.8710938,222.4926758,517.9335938,235.390625,447.5097656,235.390625z M385.1679688,317.0786133
		c0-12.8979492,11.3095703-25.2587891,25.2597656-25.2587891c13.9492188,0,25.2578125,12.3608398,25.2578125,25.2587891H385.1679688
		z M449.6591797,406.2910156c-21.3701172,0-38.6943359-18.2724609-38.6943359-38.6948242h77.3886719
		C488.3535156,388.0185547,471.0292969,406.2910156,449.6591797,406.2910156z M463.6318359,317.0786133
		c0-12.8979492,11.3095703-25.2587891,25.2587891-25.2587891c13.9501953,0,25.2587891,12.3608398,25.2587891,25.2587891H463.6318359
		z"/>
</g>
</svg>
