<?xml version="1.0" encoding="utf-8"?>
<!-- Generator: Adobe Illustrator 16.0.0, SVG Export Plug-In . SVG Version: 6.00 Build 0)  -->
<!DOCTYPE svg PUBLIC "-//W3C//DTD SVG 1.1//EN" "http://www.w3.org/Graphics/SVG/1.1/DTD/svg11.dtd">
<svg version="1.1" id="Layer_1" xmlns="http://www.w3.org/2000/svg" xmlns:xlink="http://www.w3.org/1999/xlink" x="0px" y="0px"
	 width="1024px" height="1024px" viewBox="0 0 1024 1024" enable-background="new 0 0 1024 1024" xml:space="preserve">
<path d="M430,974c0,27.5-22.5,50-50,50H200c-27.5,0-50-22.5-50-50V50c0-27.5,22.5-50,50-50h180c27.5,0,50,22.5,50,50V974z"/>
<path d="M874,974c0,27.5-22.5,50-50,50H644c-27.5,0-50-22.5-50-50V50c0-27.5,22.5-50,50-50h180c27.5,0,50,22.5,50,50V974z"/>
</svg>
