<?xml version="1.0" encoding="utf-8"?>
<!-- Generator: Adobe Illustrator 16.0.0, SVG Export Plug-In . SVG Version: 6.00 Build 0)  -->
<!DOCTYPE svg PUBLIC "-//W3C//DTD SVG 1.1//EN" "http://www.w3.org/Graphics/SVG/1.1/DTD/svg11.dtd">
<svg version="1.1" id="Layer_1" xmlns="http://www.w3.org/2000/svg" xmlns:xlink="http://www.w3.org/1999/xlink" x="0px" y="0px"
	 width="1024px" height="1024px" viewBox="0 0 1024 1024" enable-background="new 0 0 1024 1024" xml:space="preserve">
<path d="M160.85,348.61c0.108-10.298,0.662-20.49,1.638-30.558L356.436,512L229.539,638.897
	c-39.833-86.849-67.825-182.723-68.688-281.478c-0.02-1.56-0.03-3.12-0.03-4.69C160.82,351.35,160.83,349.97,160.85,348.61z
	 M512,667.563L345.358,834.205C430.071,950.913,512,1025.2,512,1025.2s81.882-74.356,166.568-191.067L512,667.563z M355.601,200.037
	c40.24-36.716,94.99-59.398,155.369-59.647c0.34-0.01,0.69-0.01,1.03-0.01s0.69,0,1.03,0.01
	c60.38,0.249,115.129,22.931,155.369,59.647l93.938-93.939C698.635,41.351,610.006,1.2,512,1.2s-186.635,40.15-250.338,104.898
	L355.601,200.037z M863.18,352.73c0-1.38-0.01-2.75-0.029-4.12c-0.107-10.298-0.662-20.49-1.639-30.558L667.564,512l126.832,126.832
	c39.869-86.871,67.89-182.738,68.754-281.412C863.17,355.86,863.18,354.3,863.18,352.73z"/>
<path d="M582.711,512l336.682-336.682c19.526-19.526,19.526-51.185,0-70.711c-9.764-9.763-22.56-14.645-35.355-14.645
	s-25.592,4.881-35.355,14.645L512,441.289L175.318,104.607c-9.762-9.762-22.561-14.644-35.355-14.645
	c-12.797-0.001-25.591,4.88-35.355,14.645c-19.526,19.526-19.526,51.185,0,70.711L441.289,512L104.607,848.682
	c-19.526,19.526-19.526,51.185,0,70.711c9.763,9.763,22.559,14.645,35.355,14.645c12.796,0,25.592-4.882,35.355-14.645L512,582.711
	l336.682,336.682c9.764,9.763,22.56,14.645,35.355,14.645s25.592-4.882,35.355-14.645c19.526-19.526,19.526-51.185,0-70.711
	L582.711,512z"/>
</svg>
