<?xml version="1.0" encoding="utf-8"?>
<!-- Generator: Adobe Illustrator 16.0.0, SVG Export Plug-In . SVG Version: 6.00 Build 0)  -->
<!DOCTYPE svg PUBLIC "-//W3C//DTD SVG 1.1//EN" "http://www.w3.org/Graphics/SVG/1.1/DTD/svg11.dtd">
<svg version="1.1" id="settings" xmlns="http://www.w3.org/2000/svg" xmlns:xlink="http://www.w3.org/1999/xlink" x="0px" y="0px"
	 width="1024px" height="1024px" viewBox="0 0 1024 1024" style="enable-background:new 0 0 1024 1024;" xml:space="preserve">
<path id="settings-path" d="M1023.9980469,446.7709961c0.0019531-16.359375-9.6396484-30.1025391-21.4208984-30.0991211
	l-84.6152344-0.0019531c-10.2207031-43.7114258-27.5449219-86.0996094-52.0283203-125.2993164l59.6074219-59.6098633
	c8.3310547-8.3305664,5.4306641-24.8632812-6.1347656-36.4326172l-91.4931641-91.4892578
	c-11.5664062-11.5693359-28.1015625-14.4692383-36.4306641-6.1367188L731.6875,157.4946289
	c-39.2568359-24.375-81.6855469-41.5976562-125.4267578-51.7045898l-0.0029297-84.3671875
	c0-11.7807617-13.7402344-21.4208984-30.0986328-21.4233398L446.7709961,0.0019531
	c-16.3598633-0.0024414-30.1025391,9.6396484-30.0996094,21.4213867l-0.0019531,84.6152344
	c-43.7114258,10.2207031-86.0991211,27.5449219-125.2983398,52.0283203l-59.6113281-59.6083984
	c-8.3295898-8.3300781-24.8632812-5.4301758-36.4321289,6.1357422l-91.4892578,91.4926758
	c-11.5693359,11.5664062-14.46875,28.1015625-6.1362305,36.4301758l59.7924805,59.9243164
	C133.1201172,331.7001953,115.8974609,374,105.7910156,418H21.4228516C9.640625,418,0,431.4829102,0,447.8422852v129.387207
	C0,593.5888672,9.640625,607,21.4228516,607h84.6162109c10.2207031,44,27.5449219,86.2646484,52.0288086,125.4638672
	L98.4575195,792.15625c-8.3305664,8.3320312-5.4311523,24.9072266,6.1381836,36.4736328l91.4892578,91.5126953
	c11.5688477,11.5664062,28.1025391,14.4785156,36.4331055,6.1455078l59.9223633-59.7861328
	C331.6992188,890.8789062,374,908.1064453,418,918.2119141v84.3652344C418,1014.359375,431.4824219,1024,447.8417969,1024
	h129.3867188C593.5888672,1024,607,1014.359375,607,1002.5771484v-84.6171875
	c44-10.2216797,86.2646484-27.546875,125.4619141-52.0283203l59.6943359,59.609375
	c8.3300781,8.3320312,24.90625,5.4316406,36.4746094-6.1357422l91.5107422-91.4912109
	c11.5683594-11.5673828,14.4775391-28.1025391,6.1455078-36.4306641L866.5,731.5585938
	C890.8740234,692.3007812,908.1015625,650,918.2089844,606h84.3681641c11.78125,0,21.4208984-13.6123047,21.4228516-29.9707031
	L1023.9980469,446.7709961z M655.3662109,655.3691406c-38.2929688,38.2929688-89.2070312,59.3818359-143.3642578,59.3818359
	s-105.0732422-21.0898438-143.3681641-59.3837891C330.3398438,617.0722656,309.25,566.1572266,309.2495117,512
	c0-54.1572266,21.0898438-105.0732422,59.3803711-143.3647461C406.9257812,330.3398438,457.8417969,309.25,512.0029297,309.25
	c54.15625,0,105.0693359,21.0893555,143.3632812,59.3823242c38.2949219,38.2954102,59.3847656,89.2114258,59.3847656,143.3681641
	C714.7509766,566.1582031,693.6601562,617.0742188,655.3662109,655.3691406z"/>
</svg>
