<?xml version="1.0" encoding="utf-8"?>
<!-- Generator: Adobe Illustrator 16.0.0, SVG Export Plug-In . SVG Version: 6.00 Build 0)  -->
<!DOCTYPE svg PUBLIC "-//W3C//DTD SVG 1.1//EN" "http://www.w3.org/Graphics/SVG/1.1/DTD/svg11.dtd">
<svg version="1.1" id="Layer_1" xmlns="http://www.w3.org/2000/svg" xmlns:xlink="http://www.w3.org/1999/xlink" x="0px" y="0px"
	 width="1024px" height="1024px" viewBox="0 0 1024 1024" enable-background="new 0 0 1024 1024" xml:space="preserve">
<g display="none">
	<path display="inline" fill="none" stroke="#000000" stroke-width="40" stroke-linecap="round" stroke-miterlimit="10" d="
		M721.322,857.821c0,0,87.107-186.393,87.107-345.154c0-158.763-87.107-345.155-87.107-345.155"/>
	<path display="inline" fill="none" stroke="#000000" stroke-width="40" stroke-linecap="round" stroke-miterlimit="10" d="
		M614.322,736.321c0,0,47.678-121.139,47.678-224.321s-47.678-224.321-47.678-224.321"/>
	<path display="inline" fill="none" stroke="#000000" stroke-width="40" stroke-linecap="round" stroke-miterlimit="10" d="
		M835.608,955.439c0,0,122.821-248.108,122.821-459.439S835.608,36.56,835.608,36.56"/>
</g>
<g>
	<g>
		<g>
			<path d="M575.114,632.586c-18.527,0-33.547-15.02-33.547-33.547s15.02-33.547,33.547-33.547
				c29.232,0,53.015-23.783,53.015-53.016s-23.782-53.016-53.015-53.016c-18.527,0-33.547-15.02-33.547-33.547
				c0-18.527,15.02-33.546,33.547-33.546c66.229,0,120.108,53.88,120.108,120.109S641.343,632.586,575.114,632.586z"/>
		</g>
		<g>
			<path d="M575.114,796.736c-18.527,0-33.547-15.02-33.547-33.547c0-18.526,15.02-33.547,33.547-33.547
				c119.877,0,217.403-97.526,217.403-217.403c0-119.878-97.526-217.406-217.403-217.406c-18.527,0-33.547-15.02-33.547-33.546
				c0-18.527,15.02-33.547,33.547-33.547c75.992,0,147.437,29.593,201.171,83.328c53.733,53.734,83.326,125.178,83.326,201.171
				c0,75.992-29.593,147.437-83.327,201.17C722.551,767.144,651.106,796.736,575.114,796.736z"/>
		</g>
		<g>
			<path d="M575.114,960.887c-18.527,0-33.547-15.02-33.547-33.546c0-18.527,15.02-33.547,33.547-33.547
				c101.982,0,197.858-39.714,269.969-111.823c72.11-72.11,111.824-167.987,111.824-269.97c0-101.981-39.714-197.859-111.824-269.97
				S677.096,130.206,575.114,130.206c-18.527,0-33.547-15.02-33.547-33.546c0-18.528,15.02-33.547,33.547-33.547
				c60.585,0,119.376,11.873,174.738,35.29c53.457,22.61,101.46,54.972,142.674,96.187c41.213,41.214,73.575,89.216,96.186,142.674
				C1012.127,392.626,1024,451.416,1024,512.001s-11.873,119.376-35.288,174.738c-22.61,53.457-54.973,101.46-96.186,142.674
				c-41.214,41.214-89.217,73.575-142.675,96.186C694.49,949.014,635.699,960.887,575.114,960.887z"/>
		</g>
	</g>
	<path d="M349.11,250.212c43.64-32.427,78.89-14.473,78.89,39.894v443.787c0,54.368-35.25,72.319-78.89,39.895L236.035,689.6
		c-43.64-32.425-91.202-58.955-105.831-58.955c-14.63,0-31.038-0.817-36.533-1.815c-5.495-0.999-19.266-5.542-19.355-5.557
		c-0.09-0.019-8.759-5.105-19.183-11.278c-10.423-6.174-31.994-28.71-31.994-28.575c0,0.134-0.026,0.1-0.062-0.077
		c0,0,0.002,0-0.118-0.166C8.722,563.349,0,538.886,0,512.439c0-26.446,8.679-50.899,22.916-70.724
		c0.119-0.167,0.119-0.167,0.119-0.167c0.061-0.183,0.11-0.221,0.11-0.084c0,0.138,8.299-9.162,18.443-20.667c0,0,0,0,11.498-7.771
		c0.082-0.06,0.256-0.107,0.34-0.167c0.035-0.023,0.035-0.023,0.035-0.023c0.059-0.026,8.499-4.105,18.757-9.064
		c10.257-4.959,50.209-10.417,62.447-10.417s57.729-26.53,101.369-58.956L349.11,250.212z"/>
</g>
</svg>
