<?xml version="1.0" encoding="utf-8"?>
<!-- Generator: Adobe Illustrator 16.0.0, SVG Export Plug-In . SVG Version: 6.00 Build 0)  -->
<!DOCTYPE svg PUBLIC "-//W3C//DTD SVG 1.1//EN" "http://www.w3.org/Graphics/SVG/1.1/DTD/svg11.dtd">
<svg version="1.1" id="Layer_1" xmlns="http://www.w3.org/2000/svg" xmlns:xlink="http://www.w3.org/1999/xlink" x="0px" y="0px"
	 width="1024px" height="1024px" viewBox="0 0 1024 1024" style="enable-background:new 0 0 1024 1024;" xml:space="preserve">
<g>
	<path style="fill:#F4E1E1;" d="M255.7382812,336.9716797c-10.8818359,0-21.7636719-4.1508789-30.065918-12.4536133
		c-16.6049805-16.6049805-16.6049805-43.5268555,0-60.1318359L439.362793,50.6958008
		c16.6044922-16.6054688,43.5273438-16.6054688,60.1318359,0c16.6049805,16.6049805,16.6049805,43.5268555,0,60.1318359
		L285.8041992,324.5180664C277.5019531,332.8208008,266.6201172,336.9716797,255.7382812,336.9716797z"/>
</g>
<g>
	<path style="fill:#F4E1E1;" d="M516.5,643.1152344c-10.8818359,0-21.7636719-4.1513672-30.065918-12.453125
		c-16.6049805-16.6054688-16.6049805-43.5273438,0-60.1328125L862.0292969,194.934082
		c16.6054688-16.6054688,43.5273438-16.6054688,60.1328125,0c16.6044922,16.6049805,16.6044922,43.5268555,0,60.1318359
		L546.5664062,630.6621094C538.2636719,638.9638672,527.3818359,643.1152344,516.5,643.1152344z"/>
</g>
<g>
	<path style="fill:#F4E1E1;" d="M101.1669922,800.1152344c-10.8818359,0-21.7631836-4.1513672-30.065918-12.453125
		c-16.6049805-16.6054688-16.6049805-43.5273438,0-60.1328125l291.0712891-291.0712891
		c16.6044922-16.6054688,43.5263672-16.6054688,60.1318359,0c16.6049805,16.6049805,16.6049805,43.5268555,0,60.1318359
		L131.2329102,787.6611328C122.9306641,795.9638672,112.0488281,800.1152344,101.1669922,800.1152344z"/>
</g>
<g>
	<path style="fill:#F4E1E1;" d="M762.2617188,958.4960938c-10.8818359,0-21.7636719-4.1513672-30.0664062-12.453125
		c-16.6044922-16.6054688-16.6044922-43.5273438,0-60.1328125l200.5957031-200.5957031
		c16.6054688-16.6035156,43.5273438-16.6035156,60.1328125,0c16.6044922,16.6054688,16.6044922,43.5273438,0,60.1328125
		L792.328125,946.0429688C784.0253906,954.3447266,773.1435547,958.4960938,762.2617188,958.4960938z"/>
</g>
<g>
	<path style="fill:#F4E1E1;" d="M762.6660156,138.5200195c-10.8828125,0-21.7626953-4.1503906-30.0664062-12.4536133
		c-16.6044922-16.6054688-16.6044922-43.5273438,0.0009766-60.1323242l30.953125-30.9526367
		c16.6035156-16.6040039,43.5263672-16.6044922,60.1318359,0.0004883
		c16.6044922,16.6054688,16.6044922,43.5273438-0.0009766,60.1323242l-30.953125,30.9521484
		C784.4306641,134.3681641,773.546875,138.5200195,762.6660156,138.5200195z"/>
</g>
<g>
	<path style="fill:#F4E1E1;" d="M80.5717773,180.5673828c-10.8818359,0-21.7631836-4.1508789-30.065918-12.4536133
		c-16.6049805-16.6049805-16.6049805-43.5268555,0-60.1318359l57.1425781-57.1430664
		c16.6044922-16.6044922,43.5263672-16.6054688,60.1318359,0c16.6049805,16.6044922,16.6049805,43.5268555,0,60.1318359
		l-57.1425781,57.1430664C102.3354492,176.4160156,91.4536133,180.5673828,80.5717773,180.5673828z"/>
</g>
<g>
	<path style="fill:#F4E1E1;" d="M198.5717773,936.5673828c-10.8818359,0-21.7631836-4.1503906-30.065918-12.453125
		c-16.6049805-16.6054688-16.6049805-43.5273438-0.0004883-60.1318359l57.1425781-57.1435547
		c16.6054688-16.6054688,43.5268555-16.6044922,60.1323242-0.0009766
		c16.6049805,16.6054688,16.6049805,43.5273438,0.0004883,60.1318359l-57.1425781,57.1435547
		C220.3354492,932.4160156,209.4536133,936.5673828,198.5717773,936.5673828z"/>
</g>
<g>
	<path style="fill:#F4E1E1;" d="M440.9052734,1010.7099609c-10.8818359,0-21.7636719-4.1513672-30.065918-12.453125
		c-16.6049805-16.6054688-16.6049805-43.5273438,0-60.1328125l263.0942383-263.0947266
		c16.6054688-16.6035156,43.5273438-16.6035156,60.1328125,0c16.6044922,16.6054688,16.6044922,43.5273438,0,60.1328125
		L470.9711914,998.2568359C462.6689453,1006.5585938,451.7871094,1010.7099609,440.9052734,1010.7099609z"/>
</g>
<g>
	<path style="fill:#DB5461;" d="M776.8417969,378.559082c0-146.8212891-119.0195312-265.8417969-265.8417969-265.8417969
		c-146.8208008,0-265.8417969,119.0205078-265.8417969,265.8417969c0,0-13.7905273,203.019043,265.8417969,478.0600586
		C790.6328125,581.578125,776.8417969,378.559082,776.8417969,378.559082z"/>
</g>
<path style="fill:#FFFFFF;" d="M562.5957031,485c0,28-22.6523438,50.5947266-50.5957031,50.5947266S461.4042969,513,461.4042969,485
	H562.5957031z"/>
<path style="fill:none;stroke:#FFFFFF;stroke-width:20;stroke-linecap:round;stroke-miterlimit:10;" d="M360.2128906,425
	c0-28,22.6523438-50.5947266,50.5957031-50.5947266S461.2021484,397,461.2021484,425"/>
<path style="fill:none;stroke:#FFFFFF;stroke-width:20;stroke-linecap:round;stroke-miterlimit:10;" d="M562.7978516,425
	c0-28,22.5517578-50.5947266,50.4951172-50.5947266S663.7871094,397,663.7871094,425"/>
<path style="fill:#7DCDCD;" d="M858.3837891,320H842v-25c0-8.25-6.75-15-15-15h-0.4248047
	c-15.6259766-50.3417969-43.3369141-96.4516602-81.6894531-134.8041992
	C682.6796875,82.9897461,599.9726562,48.8129883,512,48.8129883s-170.6801758,34.2036133-232.8862305,96.409668
	C240.7636719,183.5732422,213.0541992,229.6699219,197.4267578,280H195c-8.25,0-15,6.75-15,15v25h-16.4335938
	C157.1782227,320,152,325.1787109,152,331.5664062v118.8671875C152,456.8212891,157.1782227,462,163.5664062,462H180v24
	c0,8.25,6.75,15,15,15h35c8.25,0,15-6.75,15-15V295c0-8.0185547-6.3818359-14.6010742-14.3144531-14.9648438
	c14.5639648-41.8417969,38.4799805-80.3227539,70.7124023-112.5546875
	C357.6518555,111.2265625,432.4448242,80.3276367,512,80.3276367c79.5546875,0,154.3476562,30.9262695,210.6015625,87.1801758
	C754.8222656,199.7280273,778.7333984,238.1835938,793.2988281,280H792c-8.25,0-15,6.75-15,15v191c0,8.25,6.75,15,15,15h35
	c8.25,0,15-6.75,15-15v-24h16.3837891C864.7988281,462,870,456.7988281,870,450.3833008V331.6166992
	C870,325.2011719,864.7988281,320,858.3837891,320z"/>
</svg>
