<?xml version="1.0" encoding="utf-8"?>
<!-- Generator: Adobe Illustrator 16.0.0, SVG Export Plug-In . SVG Version: 6.00 Build 0)  -->
<!DOCTYPE svg PUBLIC "-//W3C//DTD SVG 1.1//EN" "http://www.w3.org/Graphics/SVG/1.1/DTD/svg11.dtd">
<svg version="1.1" id="Layer_1" xmlns="http://www.w3.org/2000/svg" xmlns:xlink="http://www.w3.org/1999/xlink" x="0px" y="0px"
	 width="1024px" height="1024px" viewBox="0 0 1024 1024" style="enable-background:new 0 0 1024 1024;" xml:space="preserve">
<g>
	<path style="fill:#F4E1E1;" d="M255.7382812,336.9716797c-10.8818359,0-21.7636719-4.1508789-30.065918-12.4536133
		c-16.6049805-16.6049805-16.6049805-43.5268555,0-60.1318359L439.362793,50.6958008
		c16.6044922-16.6054688,43.5273438-16.6054688,60.1318359,0c16.6049805,16.6049805,16.6049805,43.5268555,0,60.1318359
		L285.8041992,324.5180664C277.5019531,332.8208008,266.6201172,336.9716797,255.7382812,336.9716797z"/>
</g>
<g>
	<path style="fill:#F4E1E1;" d="M516.5,643.1152344c-10.8818359,0-21.7636719-4.1513672-30.065918-12.453125
		c-16.6049805-16.6054688-16.6049805-43.5273438,0-60.1328125L862.0292969,194.934082
		c16.6054688-16.6054688,43.5273438-16.6054688,60.1328125,0c16.6044922,16.6049805,16.6044922,43.5268555,0,60.1318359
		L546.5664062,630.6621094C538.2636719,638.9638672,527.3818359,643.1152344,516.5,643.1152344z"/>
</g>
<g>
	<path style="fill:#F4E1E1;" d="M101.1669922,800.1152344c-10.8818359,0-21.7631836-4.1513672-30.065918-12.453125
		c-16.6049805-16.6054688-16.6049805-43.5273438,0-60.1328125l291.0712891-291.0712891
		c16.6044922-16.6054688,43.5263672-16.6054688,60.1318359,0c16.6049805,16.6049805,16.6049805,43.5268555,0,60.1318359
		L131.2329102,787.6611328C122.9306641,795.9638672,112.0488281,800.1152344,101.1669922,800.1152344z"/>
</g>
<g>
	<path style="fill:#F4E1E1;" d="M762.2617188,958.4960938c-10.8818359,0-21.7636719-4.1513672-30.0664062-12.453125
		c-16.6044922-16.6054688-16.6044922-43.5273438,0-60.1328125l200.5957031-200.5957031
		c16.6054688-16.6035156,43.5273438-16.6035156,60.1328125,0c16.6044922,16.6054688,16.6044922,43.5273438,0,60.1328125
		L792.328125,946.0429688C784.0253906,954.3447266,773.1435547,958.4960938,762.2617188,958.4960938z"/>
</g>
<g>
	<path style="fill:#F4E1E1;" d="M762.6660156,138.5200195c-10.8828125,0-21.7626953-4.1503906-30.0664062-12.4536133
		c-16.6044922-16.6054688-16.6044922-43.5273438,0.0009766-60.1323242l30.953125-30.9526367
		c16.6035156-16.6040039,43.5263672-16.6044922,60.1318359,0.0004883
		c16.6044922,16.6054688,16.6044922,43.5273438-0.0009766,60.1323242l-30.953125,30.9521484
		C784.4306641,134.3681641,773.546875,138.5200195,762.6660156,138.5200195z"/>
</g>
<g>
	<path style="fill:#F4E1E1;" d="M80.5717773,180.5673828c-10.8818359,0-21.7631836-4.1508789-30.065918-12.4536133
		c-16.6049805-16.6049805-16.6049805-43.5268555,0-60.1318359l57.1425781-57.1430664
		c16.6044922-16.6044922,43.5263672-16.6054688,60.1318359,0c16.6049805,16.6044922,16.6049805,43.5268555,0,60.1318359
		l-57.1425781,57.1430664C102.3354492,176.4160156,91.4536133,180.5673828,80.5717773,180.5673828z"/>
</g>
<g>
	<path style="fill:#F4E1E1;" d="M198.5717773,936.5673828c-10.8818359,0-21.7631836-4.1503906-30.065918-12.453125
		c-16.6049805-16.6054688-16.6049805-43.5273438-0.0004883-60.1318359l57.1425781-57.1435547
		c16.6054688-16.6054688,43.5268555-16.6044922,60.1323242-0.0009766
		c16.6049805,16.6054688,16.6049805,43.5273438,0.0004883,60.1318359l-57.1425781,57.1435547
		C220.3354492,932.4160156,209.4536133,936.5673828,198.5717773,936.5673828z"/>
</g>
<g>
	<path style="fill:#F4E1E1;" d="M440.9052734,1010.7099609c-10.8818359,0-21.7636719-4.1513672-30.065918-12.453125
		c-16.6049805-16.6054688-16.6049805-43.5273438,0-60.1328125l263.0942383-263.0947266
		c16.6054688-16.6035156,43.5273438-16.6035156,60.1328125,0c16.6044922,16.6054688,16.6044922,43.5273438,0,60.1328125
		L470.9711914,998.2568359C462.6689453,1006.5585938,451.7871094,1010.7099609,440.9052734,1010.7099609z"/>
</g>
<g style="opacity:0.6;">
	<path style="fill:#6B02CE;" d="M784.8769531,396.7382812c-14.9140625-35.2607422-36.2695312-66.9345703-63.4746094-94.1396484
		c-27.2070312-27.2050781-58.8769531-48.5615234-94.140625-63.4755859
		c-36.4902344-15.4355469-75.2714844-23.2607422-115.2612305-23.2607422s-78.7700195,7.8251953-115.2617188,23.2597656
		c-35.2607422,14.9150391-66.9345703,36.2705078-94.1396484,63.4765625
		c-27.2045898,27.2050781-48.5610352,58.8789062-63.4760742,94.1396484
		C223.6884766,433.2304688,215.8623047,472.0107422,215.8623047,512c0,39.9902344,7.8261719,78.7705078,23.2607422,115.2626953
		c14.9140625,35.2617188,36.2705078,66.9326172,63.4760742,94.1386719
		c27.2050781,27.2050781,58.8789062,48.5625,94.1396484,63.4755859
		c36.4916992,15.4355469,75.2719727,23.2617188,115.2617188,23.2617188s78.7709961-7.8261719,115.2612305-23.2607422
		c35.2636719-14.9130859,66.9335938-36.2705078,94.140625-63.4755859
		c27.2050781-27.2060547,48.5605469-58.8769531,63.4746094-94.1396484
		c15.4375-36.4912109,23.2617188-75.2724609,23.2617188-115.2617188
		C808.1386719,472.0107422,800.3144531,433.2314453,784.8769531,396.7382812z"/>
	<path style="fill:#6B02CE;" d="M512.0004883,163.7802734c-192.3168945,0-348.2197266,155.9033203-348.2197266,348.2197266
		s155.902832,348.2197266,348.2197266,348.2197266C704.3164062,860.2197266,860.21875,704.3164062,860.21875,512
		S704.3164062,163.7802734,512.0004883,163.7802734z M512.0004883,835.0556641
		c-178.4179688,0-323.0556641-144.6367188-323.0556641-323.0556641c0-178.4179688,144.6376953-323.0556641,323.0556641-323.0556641
		c178.4174805,0,323.0541992,144.6376953,323.0541992,323.0556641
		C835.0546875,690.4189453,690.4179688,835.0556641,512.0004883,835.0556641z"/>
</g>
</svg>
