<?xml version="1.0" encoding="utf-8"?>
<!-- Generator: Adobe Illustrator 16.0.0, SVG Export Plug-In . SVG Version: 6.00 Build 0)  -->
<!DOCTYPE svg PUBLIC "-//W3C//DTD SVG 1.1//EN" "http://www.w3.org/Graphics/SVG/1.1/DTD/svg11.dtd">
<svg version="1.1" id="Layer_1" xmlns="http://www.w3.org/2000/svg" xmlns:xlink="http://www.w3.org/1999/xlink" x="0px" y="0px"
	 width="1024px" height="1024px" viewBox="0 0 1024 1024" style="enable-background:new 0 0 1024 1024;" xml:space="preserve">
<g>
	<path style="fill:#F4E1E1;" d="M255.7382812,336.9716797c-10.8818359,0-21.7636719-4.1508789-30.065918-12.4536133
		c-16.6049805-16.6049805-16.6049805-43.5268555,0-60.1318359L439.362793,50.6958008
		c16.6044922-16.6054688,43.5273438-16.6054688,60.1318359,0c16.6049805,16.6049805,16.6049805,43.5268555,0,60.1318359
		L285.8041992,324.5180664C277.5019531,332.8208008,266.6201172,336.9716797,255.7382812,336.9716797z"/>
</g>
<g>
	<path style="fill:#F4E1E1;" d="M516.5,643.1152344c-10.8818359,0-21.7636719-4.1513672-30.065918-12.453125
		c-16.6049805-16.6054688-16.6049805-43.5273438,0-60.1328125L862.0292969,194.934082
		c16.6054688-16.6054688,43.5273438-16.6054688,60.1328125,0c16.6044922,16.6049805,16.6044922,43.5268555,0,60.1318359
		L546.5664062,630.6621094C538.2636719,638.9638672,527.3818359,643.1152344,516.5,643.1152344z"/>
</g>
<g>
	<path style="fill:#F4E1E1;" d="M101.1669922,800.1152344c-10.8818359,0-21.7631836-4.1513672-30.065918-12.453125
		c-16.6049805-16.6054688-16.6049805-43.5273438,0-60.1328125l291.0712891-291.0712891
		c16.6044922-16.6054688,43.5263672-16.6054688,60.1318359,0c16.6049805,16.6049805,16.6049805,43.5268555,0,60.1318359
		L131.2329102,787.6611328C122.9306641,795.9638672,112.0488281,800.1152344,101.1669922,800.1152344z"/>
</g>
<g>
	<path style="fill:#F4E1E1;" d="M762.2617188,958.4960938c-10.8818359,0-21.7636719-4.1513672-30.0664062-12.453125
		c-16.6044922-16.6054688-16.6044922-43.5273438,0-60.1328125l200.5957031-200.5957031
		c16.6054688-16.6035156,43.5273438-16.6035156,60.1328125,0c16.6044922,16.6054688,16.6044922,43.5273438,0,60.1328125
		L792.328125,946.0429688C784.0253906,954.3447266,773.1435547,958.4960938,762.2617188,958.4960938z"/>
</g>
<g>
	<path style="fill:#F4E1E1;" d="M762.6660156,138.5200195c-10.8828125,0-21.7626953-4.1503906-30.0664062-12.4536133
		c-16.6044922-16.6054688-16.6044922-43.5273438,0.0009766-60.1323242l30.953125-30.9526367
		c16.6035156-16.6040039,43.5263672-16.6044922,60.1318359,0.0004883
		c16.6044922,16.6054688,16.6044922,43.5273438-0.0009766,60.1323242l-30.953125,30.9521484
		C784.4306641,134.3681641,773.546875,138.5200195,762.6660156,138.5200195z"/>
</g>
<g>
	<path style="fill:#F4E1E1;" d="M80.5717773,180.5673828c-10.8818359,0-21.7631836-4.1508789-30.065918-12.4536133
		c-16.6049805-16.6049805-16.6049805-43.5268555,0-60.1318359l57.1425781-57.1430664
		c16.6044922-16.6044922,43.5263672-16.6054688,60.1318359,0c16.6049805,16.6044922,16.6049805,43.5268555,0,60.1318359
		l-57.1425781,57.1430664C102.3354492,176.4160156,91.4536133,180.5673828,80.5717773,180.5673828z"/>
</g>
<g>
	<path style="fill:#F4E1E1;" d="M198.5717773,936.5673828c-10.8818359,0-21.7631836-4.1503906-30.065918-12.453125
		c-16.6049805-16.6054688-16.6049805-43.5273438-0.0004883-60.1318359l57.1425781-57.1435547
		c16.6054688-16.6054688,43.5268555-16.6044922,60.1323242-0.0009766
		c16.6049805,16.6054688,16.6049805,43.5273438,0.0004883,60.1318359l-57.1425781,57.1435547
		C220.3354492,932.4160156,209.4536133,936.5673828,198.5717773,936.5673828z"/>
</g>
<g>
	<path style="fill:#F4E1E1;" d="M440.9052734,1010.7099609c-10.8818359,0-21.7636719-4.1513672-30.065918-12.453125
		c-16.6049805-16.6054688-16.6049805-43.5273438,0-60.1328125l263.0942383-263.0947266
		c16.6054688-16.6035156,43.5273438-16.6035156,60.1328125,0c16.6044922,16.6054688,16.6044922,43.5273438,0,60.1328125
		L470.9711914,998.2568359C462.6689453,1006.5585938,451.7871094,1010.7099609,440.9052734,1010.7099609z"/>
</g>
<g>
	<path style="fill:#DB5461;" d="M383.1689453,236.2905273c0-98.6835938-79.9970703-178.6806641-178.6801758-178.6806641
		S25.8081055,137.6069336,25.8081055,236.2905273c0,0-9.269043,136.4560547,178.6806641,321.3198242
		C392.4389648,372.746582,383.1689453,236.2905273,383.1689453,236.2905273z"/>
	<g>
		<circle style="fill:#DB5461;" cx="204.0576172" cy="234.7976074" r="115.7453613"/>
		<path style="fill:#FFFFFF;" d="M204.0576172,119.0522461c63.9233398,0,115.7451172,51.8193359,115.7451172,115.7451172
			c0,63.925293-51.8217773,115.7456055-115.7451172,115.7456055c-63.9257812,0-115.7480469-51.8203125-115.7480469-115.7456055
			C88.3095703,170.871582,140.1318359,119.0522461,204.0576172,119.0522461 M204.0576172,96.0839844
			c-18.7163086,0-36.8842773,3.6669922-54.0004883,10.9072266c-16.5209961,6.9926758-31.3540039,16.9887695-44.0859375,29.7226562
			c-12.7314453,12.7290039-22.7299805,27.5610352-29.7163086,44.0805664
			c-7.2412109,17.1176758-10.9106445,35.2827148-10.9106445,54.0029297c0,18.7143555,3.6694336,36.8833008,10.9106445,54.0029297
			c6.9863281,16.5185547,16.9848633,31.3520508,29.7163086,44.0795898
			c12.7319336,12.7290039,27.5649414,22.7299805,44.0859375,29.7226562
			c17.1162109,7.2353516,35.2841797,10.90625,54.0004883,10.90625c18.7143555,0,36.8818359-3.6708984,54-10.90625
			c16.519043-6.9926758,31.3515625-16.9936523,44.0834961-29.7226562
			c12.730957-12.7275391,22.7294922-27.5610352,29.7197266-44.0795898
			c7.2382812-17.1196289,10.909668-35.2885742,10.909668-54.0029297c0-18.7202148-3.6713867-36.8852539-10.909668-54.0029297
			c-6.9902344-16.5195312-16.9887695-31.3515625-29.7197266-44.0805664
			c-12.7319336-12.7338867-27.5644531-22.7299805-44.0834961-29.7226562
			C240.9394531,99.7509766,222.7719727,96.0839844,204.0576172,96.0839844L204.0576172,96.0839844z"/>
	</g>
	<g>
		<path style="fill:#FFFFFF;" d="M222.9042969,191.1987305c1.6137695-0.269043,2.4204102,0.8061523,2.4204102,2.1513672
			c-0.5385742,10.753418-1.8823242,47.8544922-2.1518555,61.0297852c-0.2685547,12.0976562-0.8056641,41.9399414-0.8056641,52.15625
			c0,2.4194336,0.5371094,2.9575195,2.4189453,3.4946289l13.4428711,2.6899414c0.5380859,0,1.3447266,1.8813477,1.3447266,2.6875
			c0,0.5380859,0,0.8071289-0.5380859,0.8071289c-6.4526367-0.269043-19.0883789-0.5380859-33.605957-0.5380859
			c-14.7875977,0-27.4233398,0.269043-32.800293,0.5380859c-0.8061523,0-0.8061523-0.269043-0.8061523-0.5380859
			c0-1.0751953,0.5375977-2.6889648,1.34375-2.956543l12.6362305-2.9589844
			c1.8818359-0.5371094,2.9570312-1.0751953,2.9570312-3.4946289c0-5.9145508-0.8066406-38.1762695-1.0751953-51.3500977
			c-0.269043-11.0224609-1.0751953-39.5219727-1.3442383-46.2421875c-0.269043-2.1513672-0.5375977-4.0332031-2.9575195-4.0332031
			l-12.0976562-0.5380859c-0.8071289,0-1.8823242-1.8813477-1.8823242-3.4946289c0-0.269043,0-0.5380859,0.5375977-0.5380859
			L222.9042969,191.1987305z M203.2783203,142.2680664c11.2915039,0,18.2822266,8.3339844,18.2822266,17.4760742
			c0,10.2148438-7.7963867,18.5498047-18.5512695,18.5498047c-9.4091797,0-19.6259766-6.7211914-19.6259766-17.7436523
			c0-8.6030273,7.2587891-18.2822266,19.6259766-18.2822266H203.2783203z"/>
	</g>
</g>
<g>
	<path style="fill:#DB5461;" d="M858.1914062,236.2905273c0-98.6826172-79.9980469-178.6806641-178.6816406-178.6806641
		c-98.6826172,0-178.6806641,79.9980469-178.6806641,178.6806641c0,0-9.2685547,136.456543,178.6806641,321.3198242
		C867.4599609,372.7470703,858.1914062,236.2905273,858.1914062,236.2905273z"/>
	<g>
		<path style="fill:#DB5461;" d="M794.8242188,234.796875c0,63.9238281-51.8203125,115.7441406-115.7441406,115.7441406
			s-115.75-51.8203125-115.75-115.7441406c0-31.1748047,12.3271484-59.4628906,32.3652344-80.2768555
			c0.5136719-0.5356445,1.0341797-1.0654297,1.5585938-1.590332c20.9453125-20.9311523,49.8740234-33.878418,81.8261719-33.878418
			C743.0039062,119.0512695,794.8242188,170.8725586,794.8242188,234.796875z"/>
		<path style="fill:#FFFFFF;" d="M679.0791016,119.0527344c63.9228516,0,115.7451172,51.8183594,115.7451172,115.7441406
			s-51.8222656,115.7460938-115.7451172,115.7460938c-63.9257812,0-115.7490234-51.8203125-115.7490234-115.7460938
			S615.1533203,119.0527344,679.0791016,119.0527344 M679.0791016,96.0849609
			c-18.7167969,0-36.8837891,3.6650391-54.0009766,10.9067383c-16.5205078,6.9926758-31.3535156,16.9887695-44.0859375,29.7216797
			c-12.7304688,12.7285156-22.7294922,27.5620117-29.7148438,44.0810547
			c-7.2421875,17.1176758-10.9121094,35.2832031-10.9121094,54.0024414c0,18.7143555,3.6699219,36.8837891,10.9121094,54.0039062
			c6.9853516,16.5185547,16.984375,31.3515625,29.7148438,44.0800781
			c12.7324219,12.7285156,27.5654297,22.7285156,44.0859375,29.7216797
			c17.1171875,7.2353516,35.2841797,10.90625,54.0009766,10.90625c18.7138672,0,36.8818359-3.6708984,53.9990234-10.90625
			c16.5205078-6.9931641,31.3525391-16.9931641,44.0849609-29.7216797
			c12.7304688-12.7285156,22.7285156-27.5615234,29.71875-44.0800781
			c7.2382812-17.1201172,10.9101562-35.2895508,10.9101562-54.0039062c0-18.7192383-3.671875-36.8847656-10.9101562-54.0024414
			c-6.9902344-16.519043-16.9882812-31.3525391-29.71875-44.0810547
			c-12.7324219-12.7329102-27.5644531-22.7290039-44.0849609-29.7216797
			C715.9609375,99.75,697.7929688,96.0849609,679.0791016,96.0849609L679.0791016,96.0849609z"/>
	</g>
	<path style="fill:#FFFFFF;" d="M752.6289062,215.3989258c-7.9082031-1.5166016-18.2236328-2.4404297-29.7294922-2.4404297
		c-11.5039062,0-22.1337891,0.9238281-30.0439453,2.4404297C683.8242188,217.1259766,678,219.6235352,678,222.4047852v47.7602539
		c0,27.8251953,19.8642578,50.3837891,44.5,50.3837891s44.5-22.5585938,44.5-50.3837891v-47.7602539
		C767,219.6235352,761.6621094,217.1259766,752.6289062,215.3989258z M686,246.3129883l27.3652344-7.3330078
		c2.0361328,7.6049805-2.4619141,15.3232422-10.0166016,17.3481445
		C695.7929688,258.3530273,688.0380859,253.9165039,686,246.3129883z M704.1767578,295
		c0-9,8.4589844-18.8925781,18.8935547-18.8925781S741.9638672,286,741.9638672,295H704.1767578z M743.7988281,255.7480469
		c-7.5556641-2.0249023-12.0537109-9.7451172-10.015625-17.3486328l27.3632812,7.3325195
		C759.109375,253.3349609,751.3554688,257.7709961,743.7988281,255.7480469z"/>
	<path style="fill:#DB5461;" d="M688.2773438,159.8623047c-0.5195312,0.2519531-2.8417969,1.4326172-8.4316406,2.6025391
		c-5.7724609,1.2070312-15.8935547,2.6445312-31.9589844,2.6445312c-16.0644531,0-26.2539062-1.4375-32.0263672-2.6445312
		c-5.5947266-1.1699219-8.1435547-2.3505859-8.6630859-2.6025391l-9.9599609-6.9326172
		c-0.5244141,0.5249023-1.0244141,1.0546875-1.5380859,1.590332L596,166.2495117v62.4536133
		c0,15.277832,5.2871094,29.6787109,14.9179688,40.559082c9.8613281,11.1308594,23.0322266,17.2612305,37.1083984,17.2612305
		s26.7177734-6.1303711,36.5800781-17.2612305C694.2382812,258.3818359,699,243.980957,699,228.703125v-76.6772461
		L688.2773438,159.8623047z M692,228.703125c0,27.8266602-19.8642578,50.3833008-44.5,50.3833008
		c-24.6347656,0-44.5-22.5566406-44.5-50.3833008v-62.4536133c0,0,10.1142578,6.2978516,44.5,6.2978516
		s44.5-6.2978516,44.5-6.2978516V228.703125z M668.2255859,200.6674805c-6.8115234,0-12.3330078,5.3325195-12.3330078,12.3325195
		h24.6669922C680.5595703,206,675.0390625,200.6674805,668.2255859,200.6674805z M649.0703125,255.894043
		c10.4335938,0,18.8935547-8.894043,18.8935547-18.894043h-37.7880859
		C630.1757812,247,638.6367188,255.894043,649.0703125,255.894043z M657.6308594,245
		c-2.1367188,2-5.2382812,4.019043-8.5605469,4.019043S642.6464844,247,640.5097656,245H657.6308594z M629.9140625,200.6674805
		c-6.8125,0-12.3330078,5.3325195-12.3330078,12.3325195h24.6669922
		C642.2480469,206,636.7265625,200.6674805,629.9140625,200.6674805z M630.1757812,237
		c0,10,8.4609375,18.894043,18.8945312,18.894043S667.9638672,247,667.9638672,237H630.1757812z M649.0703125,249.019043
		c-3.3222656,0-6.4238281-2.019043-8.5605469-4.019043h17.1210938C655.4941406,247,652.3925781,249.019043,649.0703125,249.019043z
		 M629.9140625,200.6674805c-6.8125,0-12.3330078,5.3325195-12.3330078,12.3325195h24.6669922
		C642.2480469,206,636.7265625,200.6674805,629.9140625,200.6674805z M668.2255859,200.6674805
		c-6.8115234,0-12.3330078,5.3325195-12.3330078,12.3325195h24.6669922
		C680.5595703,206,675.0390625,200.6674805,668.2255859,200.6674805z M668.2255859,200.6674805
		c-6.8115234,0-12.3330078,5.3325195-12.3330078,12.3325195h24.6669922
		C680.5595703,206,675.0390625,200.6674805,668.2255859,200.6674805z M649.0703125,255.894043
		c10.4335938,0,18.8935547-8.894043,18.8935547-18.894043h-37.7880859
		C630.1757812,247,638.6367188,255.894043,649.0703125,255.894043z M657.6308594,245
		c-2.1367188,2-5.2382812,4.019043-8.5605469,4.019043S642.6464844,247,640.5097656,245H657.6308594z M629.9140625,200.6674805
		c-6.8125,0-12.3330078,5.3325195-12.3330078,12.3325195h24.6669922
		C642.2480469,206,636.7265625,200.6674805,629.9140625,200.6674805z"/>
	<g>
		<path style="fill:#FFFFFF;" d="M648.0205078,172.5473633c-34.3876953,0-44.6103516-6.2978516-44.6103516-6.2978516v62.4536133
			c0,27.8266602,19.9726562,50.3833008,44.6103516,50.3833008s44.6103516-22.5566406,44.6103516-50.3833008v-62.4536133
			C692.6308594,166.2495117,682.40625,172.5473633,648.0205078,172.5473633z M617.5810547,212.4335938
			c0-6.2983398,5.5214844-12.3325195,12.3330078-12.3325195s12.3339844,6.0341797,12.3339844,12.3325195H617.5810547z
			 M649.0703125,255.9941406c-10.4345703,0-18.8945312-8.921875-18.8945312-18.894043h37.7880859
			C667.9638672,247.0722656,659.5039062,255.9941406,649.0703125,255.9941406z M655.8925781,212.4335938
			c0-6.2983398,5.5214844-12.3325195,12.3330078-12.3325195s12.3339844,6.0341797,12.3339844,12.3325195H655.8925781z"/>
	</g>
</g>
<g>
	<path style="fill:#DB5461;" d="M620.6796875,587.6474609c0-98.6835938-79.9960938-178.6806641-178.6806641-178.6806641
		c-98.6816406,0-178.6806641,79.9970703-178.6806641,178.6806641c0,0-9.2685547,136.4550781,178.6806641,321.3193359
		C629.9492188,724.1025391,620.6796875,587.6474609,620.6796875,587.6474609z"/>
	<g>
		<circle style="fill:#DB5461;" cx="441.5683594" cy="586.1542969" r="115.7451172"/>
		<path style="fill:#FFFFFF;" d="M441.5683594,470.4091797c63.9238281,0,115.7441406,51.8173828,115.7441406,115.7441406
			c0,63.9248047-51.8203125,115.7460938-115.7441406,115.7460938c-63.9257812,0-115.7490234-51.8212891-115.7490234-115.7460938
			C325.8193359,522.2265625,377.6425781,470.4091797,441.5683594,470.4091797 M441.5683594,447.4414062
			c-18.7167969,0-36.8837891,3.6660156-54.0009766,10.90625c-16.5205078,6.9921875-31.3544922,16.9882812-44.0849609,29.7226562
			c-12.7314453,12.7285156-22.7304688,27.5625-29.7167969,44.0800781
			c-7.2421875,17.1191406-10.9101562,35.2841797-10.9101562,54.0029297c0,18.7138672,3.6679688,36.8837891,10.9101562,54.0029297
			c6.9863281,16.5185547,16.9853516,31.3525391,29.7167969,44.0810547
			c12.7304688,12.7275391,27.5644531,22.7294922,44.0849609,29.7216797
			c17.1171875,7.2353516,35.2841797,10.90625,54.0009766,10.90625c18.7138672,0,36.8818359-3.6708984,54-10.90625
			c16.5195312-6.9921875,31.3515625-16.9941406,44.0839844-29.7216797
			c12.7304688-12.7285156,22.7294922-27.5625,29.71875-44.0810547
			c7.2382812-17.1191406,10.9091797-35.2890625,10.9091797-54.0029297c0-18.71875-3.6708984-36.8837891-10.9091797-54.0029297
			c-6.9892578-16.5175781-16.9882812-31.3515625-29.71875-44.0800781
			c-12.7324219-12.734375-27.5644531-22.7304688-44.0839844-29.7226562
			C478.4501953,451.1074219,460.2822266,447.4414062,441.5683594,447.4414062L441.5683594,447.4414062z"/>
	</g>
	<g>
		<g>
			<rect x="388" y="543" style="fill:#FFFFFF;" width="12" height="73"/>
			<rect x="412" y="543" style="fill:#FFFFFF;" width="11" height="73"/>
			<rect x="437" y="543" style="fill:#FFFFFF;" width="10" height="73"/>
			<rect x="460" y="543" style="fill:#FFFFFF;" width="12" height="73"/>
			<rect x="484" y="543" style="fill:#FFFFFF;" width="12" height="73"/>
		</g>
		<path style="fill:#FFFFFF;" d="M502.8789062,621h-60.8798828h-60.8789062c0,0-5.7451172,15-17.2324219,20h78.1113281h78.1113281
			C508.6240234,636,502.8789062,621,502.8789062,621z"/>
		<path style="fill:#FFFFFF;" d="M442,507.4287109c-29.1005859,13.0195312-78,22.2792969-78,22.2792969V539h77.9990234H520
			v-9.2919922C520,529.7080078,471.1005859,520.4482422,442,507.4287109z"/>
	</g>
</g>
<circle style="fill:#DB5461;" cx="811.8164062" cy="752.3740234" r="146.0742188"/>
<g>
	<path style="fill:#FFFFFF;" d="M837.4355469,730.046875c0,5.0546875-1.53125,9.3515625-4.5927734,12.8925781
		c-3.0625,3.5410156-7.359375,5.9765625-12.8925781,7.3046875v0.3320312
		c6.5292969,0.8105469,11.4716797,2.7929688,14.8291016,5.9472656c3.3564453,3.1542969,5.0351562,7.40625,5.0351562,12.7539062
		c0,7.7832031-2.8222656,13.84375-8.4658203,18.1777344s-13.7041016,6.5-24.1796875,6.5
		c-8.7792969,0-16.5634766-1.4570312-23.3505859-4.3710938v-14.5507812
		c3.1357422,1.5859375,6.5849609,2.8769531,10.3476562,3.8730469s7.4873047,1.4941406,11.1767578,1.4941406
		c5.6435547,0,9.8115234-0.9589844,12.5048828-2.8789062c2.6923828-1.9160156,4.0390625-4.9980469,4.0390625-9.2402344
		c0-3.7988281-1.5488281-6.4921875-4.6474609-8.078125s-8.0419922-2.3789062-14.8291016-2.3789062h-6.1416016v-13.1132812h6.2519531
		c6.2714844,0,10.8544922-0.8203125,13.75-2.4628906c2.8955078-1.640625,4.34375-4.453125,4.34375-8.4375
		c0-6.1230469-3.8369141-9.1855469-11.5087891-9.1855469c-2.65625,0-5.3583984,0.4433594-8.1064453,1.328125
		s-5.8007812,2.4160156-9.1572266,4.5917969l-7.9121094-11.7851562c7.3769531-5.3125,16.1748047-7.9667969,26.3925781-7.9667969
		c8.3740234,0,14.9853516,1.6972656,19.8369141,5.0898438C835.0087891,719.2773438,837.4355469,723.9980469,837.4355469,730.046875z
		"/>
</g>
</svg>
