<?xml version="1.0" encoding="utf-8"?>
<!-- Generator: Adobe Illustrator 16.0.0, SVG Export Plug-In . SVG Version: 6.00 Build 0)  -->
<!DOCTYPE svg PUBLIC "-//W3C//DTD SVG 1.1//EN" "http://www.w3.org/Graphics/SVG/1.1/DTD/svg11.dtd">
<svg version="1.1" id="Layer_1" xmlns="http://www.w3.org/2000/svg" xmlns:xlink="http://www.w3.org/1999/xlink" x="0px" y="0px"
	 width="1024px" height="1024px" viewBox="0 0 1024 1024" style="enable-background:new 0 0 1024 1024;" xml:space="preserve">
<g>
	<path style="fill:#F4E1E1;" d="M255.7382812,336.9716797c-10.8818359,0-21.7636719-4.1508789-30.065918-12.4536133
		c-16.6049805-16.6049805-16.6049805-43.5268555,0-60.1318359L439.362793,50.6958008
		c16.6044922-16.6054688,43.5273438-16.6054688,60.1318359,0c16.6049805,16.6049805,16.6049805,43.5268555,0,60.1318359
		L285.8041992,324.5180664C277.5019531,332.8208008,266.6201172,336.9716797,255.7382812,336.9716797z"/>
</g>
<g>
	<path style="fill:#F4E1E1;" d="M516.5,643.1152344c-10.8818359,0-21.7636719-4.1513672-30.065918-12.453125
		c-16.6049805-16.6054688-16.6049805-43.5273438,0-60.1328125L862.0292969,194.934082
		c16.6054688-16.6054688,43.5273438-16.6054688,60.1328125,0c16.6044922,16.6049805,16.6044922,43.5268555,0,60.1318359
		L546.5664062,630.6621094C538.2636719,638.9638672,527.3818359,643.1152344,516.5,643.1152344z"/>
</g>
<g>
	<path style="fill:#F4E1E1;" d="M101.1669922,800.1152344c-10.8818359,0-21.7631836-4.1513672-30.065918-12.453125
		c-16.6049805-16.6054688-16.6049805-43.5273438,0-60.1328125l291.0712891-291.0712891
		c16.6044922-16.6054688,43.5263672-16.6054688,60.1318359,0c16.6049805,16.6049805,16.6049805,43.5268555,0,60.1318359
		L131.2329102,787.6611328C122.9306641,795.9638672,112.0488281,800.1152344,101.1669922,800.1152344z"/>
</g>
<g>
	<path style="fill:#F4E1E1;" d="M762.2617188,958.4960938c-10.8818359,0-21.7636719-4.1513672-30.0664062-12.453125
		c-16.6044922-16.6054688-16.6044922-43.5273438,0-60.1328125l200.5957031-200.5957031
		c16.6054688-16.6035156,43.5273438-16.6035156,60.1328125,0c16.6044922,16.6054688,16.6044922,43.5273438,0,60.1328125
		L792.328125,946.0429688C784.0253906,954.3447266,773.1435547,958.4960938,762.2617188,958.4960938z"/>
</g>
<g>
	<path style="fill:#F4E1E1;" d="M762.6660156,138.5200195c-10.8828125,0-21.7626953-4.1503906-30.0664062-12.4536133
		c-16.6044922-16.6054688-16.6044922-43.5273438,0.0009766-60.1323242l30.953125-30.9526367
		c16.6035156-16.6040039,43.5263672-16.6044922,60.1318359,0.0004883
		c16.6044922,16.6054688,16.6044922,43.5273438-0.0009766,60.1323242l-30.953125,30.9521484
		C784.4306641,134.3681641,773.546875,138.5200195,762.6660156,138.5200195z"/>
</g>
<g>
	<path style="fill:#F4E1E1;" d="M80.5717773,180.5673828c-10.8818359,0-21.7631836-4.1508789-30.065918-12.4536133
		c-16.6049805-16.6049805-16.6049805-43.5268555,0-60.1318359l57.1425781-57.1430664
		c16.6044922-16.6044922,43.5263672-16.6054688,60.1318359,0c16.6049805,16.6044922,16.6049805,43.5268555,0,60.1318359
		l-57.1425781,57.1430664C102.3354492,176.4160156,91.4536133,180.5673828,80.5717773,180.5673828z"/>
</g>
<g>
	<path style="fill:#F4E1E1;" d="M198.5717773,936.5673828c-10.8818359,0-21.7631836-4.1503906-30.065918-12.453125
		c-16.6049805-16.6054688-16.6049805-43.5273438-0.0004883-60.1318359l57.1425781-57.1435547
		c16.6054688-16.6054688,43.5268555-16.6044922,60.1323242-0.0009766
		c16.6049805,16.6054688,16.6049805,43.5273438,0.0004883,60.1318359l-57.1425781,57.1435547
		C220.3354492,932.4160156,209.4536133,936.5673828,198.5717773,936.5673828z"/>
</g>
<g>
	<path style="fill:#F4E1E1;" d="M440.9052734,1010.7099609c-10.8818359,0-21.7636719-4.1513672-30.065918-12.453125
		c-16.6049805-16.6054688-16.6049805-43.5273438,0-60.1328125l263.0942383-263.0947266
		c16.6054688-16.6035156,43.5273438-16.6035156,60.1328125,0c16.6044922,16.6054688,16.6044922,43.5273438,0,60.1328125
		L470.9711914,998.2568359C462.6689453,1006.5585938,451.7871094,1010.7099609,440.9052734,1010.7099609z"/>
</g>
<g>
	<path style="fill:#DB5461;" d="M777.6318359,378.2509766c0-146.7050781-118.9257812-265.6318359-265.6318359-265.6318359
		c-146.7050781,0-265.6318359,118.9267578-265.6318359,265.6318359c0,0-13.7802734,202.859375,265.6318359,477.6835938
		C791.4121094,581.1103516,777.6318359,378.2509766,777.6318359,378.2509766z"/>
	<g>
		<path style="fill:#DB5461;" d="M683.4296875,376.0297852c0,95.0317383-77.0390625,172.0708008-172.0693359,172.0708008
			c-95.03125,0-172.078125-77.0390625-172.078125-172.0708008c0-46.3452148,18.3271484-88.3989258,48.1162109-119.3427734
			c0.7646484-0.7958984,1.5371094-1.5834961,2.3173828-2.3637695
			c31.1386719-31.1152344,74.1435547-50.3637695,121.6445312-50.3637695
			C606.390625,203.9594727,683.4296875,280.9990234,683.4296875,376.0297852z"/>
		<path style="fill:#FFFFFF;" d="M511.359375,203.9609375c95.0302734,0,172.0693359,77.0351562,172.0693359,172.0698242
			c0,95.0336914-77.0390625,172.0708008-172.0693359,172.0708008c-95.0341797,0-172.0751953-77.0371094-172.0751953-172.0708008
			C339.2841797,280.9960938,416.3251953,203.9609375,511.359375,203.9609375 M511.359375,169.815918
			c-27.8251953,0-54.8339844,5.4501953-80.2792969,16.2143555c-24.5605469,10.3955078-46.6123047,25.2563477-65.5390625,44.1870117
			c-18.9267578,18.9223633-33.7910156,40.9736328-44.1777344,65.53125
			c-10.7646484,25.4487305-16.2197266,52.4526367-16.2197266,80.2822266c0,27.8208008,5.4550781,54.8325195,16.2197266,80.2827148
			C331.75,480.8710938,346.6142578,502.921875,365.5410156,521.84375
			c18.9267578,18.9228516,40.9785156,33.7919922,65.5390625,44.1865234
			c25.4453125,10.7568359,52.4541016,16.2138672,80.2792969,16.2138672c27.8212891,0,54.8291016-5.4570312,80.2773438-16.2138672
			c24.5585938-10.3945312,46.6083984-25.2636719,65.5371094-44.1865234
			c18.9257812-18.921875,33.7900391-40.9726562,44.1816406-65.5302734
			c10.7607422-25.4501953,16.21875-52.4619141,16.21875-80.2827148c0-27.8295898-5.4580078-54.8334961-16.21875-80.2822266
			c-10.3916016-24.5576172-25.2558594-46.6088867-44.1816406-65.53125
			c-18.9287109-18.9306641-40.9785156-33.7915039-65.5371094-44.1870117
			C566.1884766,175.2661133,539.1806641,169.815918,511.359375,169.815918L511.359375,169.815918z"/>
	</g>
	<path style="fill:#FFFFFF;" d="M621.1679688,347.1928711c-11.7578125-2.2548828-27.3271484-3.6279297-44.4296875-3.6279297
		s-32.4003906,1.3730469-44.1582031,3.6279297C519.1523438,349.7597656,511,353.4741211,511,357.6088867v71.0004883
		c0,41.3671875,29.3759766,74.9013672,66,74.9013672s66-33.5341797,66-74.9013672v-71.0004883
		C643,353.4741211,634.5957031,349.7597656,621.1679688,347.1928711z M521.6484375,393.1503906L562.3291016,382.25
		c3.0283203,11.3041992-3.6582031,22.7792969-14.890625,25.7900391
		C536.2060547,411.0498047,524.6777344,404.4541016,521.6484375,393.1503906z M548.6699219,466
		c0-15,12.5761719-28.0878906,28.0878906-28.0878906C592.2705078,437.9121094,604.8457031,451,604.8457031,466H548.6699219z
		 M607.5732422,407.1757812c-11.2324219-3.0097656-17.9179688-14.4848633-14.8896484-25.7900391l40.6806641,10.9003906
		C630.3349609,403.5898438,618.8076172,410.1855469,607.5732422,407.1757812z"/>
	<path style="fill:#DB5461;" d="M526.0439453,264.6298828c-0.7714844,0.3745117-4.7275391,2.1298828-13.0371094,3.8701172
		c-8.5820312,1.7939453-23.8833008,3.9321289-47.7661133,3.9321289c-23.8818359,0-39.1547852-2.1381836-47.737793-3.9321289
		c-8.3173828-1.7402344-12.1694336-3.4956055-12.9418945-3.8701172l-14.8378906-10.3066406
		c-0.7802734,0.7802734-1.4633789,1.5678711-2.2280273,2.3637695L388,274.125v92.8466797
		c0,22.7119141,7.7861328,44.1210938,22.1025391,60.2949219c14.6611328,16.5498047,34.2050781,25.6621094,55.1308594,25.6621094
		c20.9248047,0,40.7133789-9.1123047,55.3740234-25.6621094C534.9238281,411.0927734,543,389.6835938,543,366.9716797V252.980957
		L526.0439453,264.6298828z M532,366.9716797c0,41.3671875-29.8759766,74.9013672-66.5,74.9013672
		c-36.6230469,0-66.5-33.5341797-66.5-74.9013672V274.125c0,0,15.3798828,9.362793,66.5,9.362793S532,274.125,532,274.125
		V366.9716797z M495.2246094,324.6650391C485.0976562,324.6650391,476.8896484,334,476.8896484,343h36.6708984
		C513.5605469,334,505.3525391,324.6650391,495.2246094,324.6650391z M466.7470703,408.0878906
		C482.2578125,408.0878906,494.8349609,395,494.8349609,380h-56.1757812
		C438.6591797,395,451.2363281,408.0878906,466.7470703,408.0878906z M479.4726562,391
		c-3.1757812,4-7.7871094,5.9765625-12.7255859,5.9765625c-4.9394531,0-9.5507812-1.9765625-12.7255859-5.9765625H479.4726562z
		 M438.2685547,324.6650391C428.1416016,324.6650391,419.9335938,334,419.9335938,343h36.6699219
		C456.6035156,334,448.3955078,324.6650391,438.2685547,324.6650391z M438.6591797,380
		c0,15,12.5771484,28.0878906,28.0878906,28.0878906S494.8349609,395,494.8349609,380H438.6591797z M466.7470703,396.9765625
		c-4.9394531,0-9.5507812-1.9765625-12.7255859-5.9765625h25.4511719
		C476.296875,395,471.6855469,396.9765625,466.7470703,396.9765625z M438.2685547,324.6650391
		C428.1416016,324.6650391,419.9335938,334,419.9335938,343h36.6699219
		C456.6035156,334,448.3955078,324.6650391,438.2685547,324.6650391z M495.2246094,324.6650391
		C485.0976562,324.6650391,476.8896484,334,476.8896484,343h36.6708984
		C513.5605469,334,505.3525391,324.6650391,495.2246094,324.6650391z M495.2246094,324.6650391
		C485.0976562,324.6650391,476.8896484,334,476.8896484,343h36.6708984
		C513.5605469,334,505.3525391,324.6650391,495.2246094,324.6650391z M466.7470703,408.0878906
		C482.2578125,408.0878906,494.8349609,395,494.8349609,380h-56.1757812
		C438.6591797,395,451.2363281,408.0878906,466.7470703,408.0878906z M479.4726562,391
		c-3.1757812,4-7.7871094,5.9765625-12.7255859,5.9765625c-4.9394531,0-9.5507812-1.9765625-12.7255859-5.9765625H479.4726562z
		 M438.2685547,324.6650391C428.1416016,324.6650391,419.9335938,334,419.9335938,343h36.6699219
		C456.6035156,334,448.3955078,324.6650391,438.2685547,324.6650391z"/>
	<g>
		<path style="fill:#FFFFFF;" d="M465.1865234,283.487793c-51.1210938,0-66.3193359-9.362793-66.3193359-9.362793v92.8466797
			c0,41.3671875,29.6923828,74.9013672,66.3193359,74.9013672s66.3183594-33.5341797,66.3183594-74.9013672V274.125
			C531.5048828,274.125,516.3066406,283.487793,465.1865234,283.487793z M419.9335938,342.784668
			c0-9.362793,8.2089844-18.3349609,18.3349609-18.3349609s18.3349609,8.972168,18.3349609,18.3349609H419.9335938z
			 M466.7470703,407.5429688c-15.5126953,0-28.0878906-13.2636719-28.0878906-28.0878906h56.1757812
			C494.8349609,394.2792969,482.2587891,407.5429688,466.7470703,407.5429688z M476.8896484,342.784668
			c0-9.362793,8.2089844-18.3349609,18.3349609-18.3349609s18.3359375,8.972168,18.3359375,18.3349609H476.8896484z"/>
	</g>
</g>
</svg>
