<?xml version="1.0" encoding="utf-8"?>
<!-- Generator: Adobe Illustrator 16.0.0, SVG Export Plug-In . SVG Version: 6.00 Build 0)  -->
<!DOCTYPE svg PUBLIC "-//W3C//DTD SVG 1.1//EN" "http://www.w3.org/Graphics/SVG/1.1/DTD/svg11.dtd">
<svg version="1.1" id="Layer_1" xmlns="http://www.w3.org/2000/svg" xmlns:xlink="http://www.w3.org/1999/xlink" x="0px" y="0px"
	 width="1024px" height="1024px" viewBox="0 0 1024 1024" style="enable-background:new 0 0 1024 1024;" xml:space="preserve">
<g>
	<path style="fill:#F4E1E1;" d="M255.7382812,336.9716797c-10.8818359,0-21.7636719-4.1508789-30.065918-12.4536133
		c-16.6049805-16.6049805-16.6049805-43.5268555,0-60.1318359L439.362793,50.6958008
		c16.6044922-16.6054688,43.5273438-16.6054688,60.1318359,0c16.6049805,16.6049805,16.6049805,43.5268555,0,60.1318359
		L285.8041992,324.5180664C277.5019531,332.8208008,266.6201172,336.9716797,255.7382812,336.9716797z"/>
</g>
<g>
	<path style="fill:#F4E1E1;" d="M516.5,643.1152344c-10.8818359,0-21.7636719-4.1513672-30.065918-12.453125
		c-16.6049805-16.6054688-16.6049805-43.5273438,0-60.1328125L862.0292969,194.934082
		c16.6054688-16.6054688,43.5273438-16.6054688,60.1328125,0c16.6044922,16.6049805,16.6044922,43.5268555,0,60.1318359
		L546.5664062,630.6621094C538.2636719,638.9638672,527.3818359,643.1152344,516.5,643.1152344z"/>
</g>
<g>
	<path style="fill:#F4E1E1;" d="M101.1669922,800.1152344c-10.8818359,0-21.7631836-4.1513672-30.065918-12.453125
		c-16.6049805-16.6054688-16.6049805-43.5273438,0-60.1328125l291.0712891-291.0712891
		c16.6044922-16.6054688,43.5263672-16.6054688,60.1318359,0c16.6049805,16.6049805,16.6049805,43.5268555,0,60.1318359
		L131.2329102,787.6611328C122.9306641,795.9638672,112.0488281,800.1152344,101.1669922,800.1152344z"/>
</g>
<g>
	<path style="fill:#F4E1E1;" d="M762.2617188,958.4960938c-10.8818359,0-21.7636719-4.1513672-30.0664062-12.453125
		c-16.6044922-16.6054688-16.6044922-43.5273438,0-60.1328125l200.5957031-200.5957031
		c16.6054688-16.6035156,43.5273438-16.6035156,60.1328125,0c16.6044922,16.6054688,16.6044922,43.5273438,0,60.1328125
		L792.328125,946.0429688C784.0253906,954.3447266,773.1435547,958.4960938,762.2617188,958.4960938z"/>
</g>
<g>
	<path style="fill:#F4E1E1;" d="M762.6660156,138.5200195c-10.8828125,0-21.7626953-4.1503906-30.0664062-12.4536133
		c-16.6044922-16.6054688-16.6044922-43.5273438,0.0009766-60.1323242l30.953125-30.9526367
		c16.6035156-16.6040039,43.5263672-16.6044922,60.1318359,0.0004883
		c16.6044922,16.6054688,16.6044922,43.5273438-0.0009766,60.1323242l-30.953125,30.9521484
		C784.4306641,134.3681641,773.546875,138.5200195,762.6660156,138.5200195z"/>
</g>
<g>
	<path style="fill:#F4E1E1;" d="M80.5717773,180.5673828c-10.8818359,0-21.7631836-4.1508789-30.065918-12.4536133
		c-16.6049805-16.6049805-16.6049805-43.5268555,0-60.1318359l57.1425781-57.1430664
		c16.6044922-16.6044922,43.5263672-16.6054688,60.1318359,0c16.6049805,16.6044922,16.6049805,43.5268555,0,60.1318359
		l-57.1425781,57.1430664C102.3354492,176.4160156,91.4536133,180.5673828,80.5717773,180.5673828z"/>
</g>
<g>
	<path style="fill:#F4E1E1;" d="M198.5717773,936.5673828c-10.8818359,0-21.7631836-4.1503906-30.065918-12.453125
		c-16.6049805-16.6054688-16.6049805-43.5273438-0.0004883-60.1318359l57.1425781-57.1435547
		c16.6054688-16.6054688,43.5268555-16.6044922,60.1323242-0.0009766
		c16.6049805,16.6054688,16.6049805,43.5273438,0.0004883,60.1318359l-57.1425781,57.1435547
		C220.3354492,932.4160156,209.4536133,936.5673828,198.5717773,936.5673828z"/>
</g>
<g>
	<path style="fill:#F4E1E1;" d="M440.9052734,1010.7099609c-10.8818359,0-21.7636719-4.1513672-30.065918-12.453125
		c-16.6049805-16.6054688-16.6049805-43.5273438,0-60.1328125l263.0942383-263.0947266
		c16.6054688-16.6035156,43.5273438-16.6035156,60.1328125,0c16.6044922,16.6054688,16.6044922,43.5273438,0,60.1328125
		L470.9711914,998.2568359C462.6689453,1006.5585938,451.7871094,1010.7099609,440.9052734,1010.7099609z"/>
</g>
<g>
	<path style="fill:#DB5461;" d="M776.8417969,378.559082c0-146.8212891-119.0195312-265.8417969-265.8417969-265.8417969
		c-146.8208008,0-265.8417969,119.0205078-265.8417969,265.8417969c0,0-13.7905273,203.019043,265.8417969,478.0600586
		C790.6328125,581.578125,776.8417969,378.559082,776.8417969,378.559082z"/>
</g>
<g>
	<g>
		<path d="M660.0996094,190.6064453c-1.7246094,6.8798828-6.0185547,13.7529297-12.8896484,20.625
			c-6.8818359,6.8803711-15.4697266,13.2363281-25.7822266,19.078125c-1.3779297,0.6933594-2.2392578,1.2080078-2.578125,1.5463867
			c10.6494141,16.1621094,16.1542969,40.3969727,16.5,72.7036133c0.3388672,13.0678711,0,24.1538086-1.0302734,33.2573242
			c-1.03125,9.112793-1.546875,13.8427734-1.546875,14.1806641c-2.7568359,17.8774414-6.0195312,33.8613281-9.796875,47.953125
			c-3.7871094,14.0986328-8.5976562,27.1601562-14.4375,39.1875C596.5,466.6435547,578.9697266,488.9770508,555.9433594,506.1699219
			c-15.8144531,11.6816406-32.484375,19.9316406-50.015625,24.75c-4.4707031,1.03125-8.9418945,1.8857422-13.4057617,2.578125
			c-4.4716797,0.6855469-9.1123047,1.03125-13.9223633,1.03125c-1.7241211,0-3.3505859-0.0888672-4.8984375-0.2568359
			c-1.546875-0.1767578-3.1821289-0.2597656-4.8984375-0.2597656c-21.3183594-0.6923828-41.0805664-6.0166016-59.2973633-15.9833984
			c-18.2236328-9.9750977-32.2260742-24.4916992-42.0234375-43.5703125
			c-9.7963867-19.0786133-13.7524414-42.6210938-11.859375-70.6416016
			c1.8852539-28.0126953,12.4555664-60.4082031,31.7109375-97.1948242
			c6.8725586-13.0595703,14.0913086-25.2661133,21.6567383-36.609375
			c7.5566406-11.3442383,15.2915039-21.6567383,23.2036133-30.9379883c-1.378418-0.6845703-2.7558594-1.2001953-4.1254883-1.546875
			c-1.378418-0.3383789-2.9243164-0.8544922-4.640625-1.546875c-15.1313477-4.8100586-27.7636719-8.8461914-37.8989258-12.1171875
			c-10.1430664-3.262207-20.5444336-6.703125-31.1948242-10.3125c-10.6591797-3.609375-19.2558594-6.6152344-25.78125-9.0239258
			c-4.1254883-1.3691406-9.9741211-2.8354492-17.5317383-4.3823242c-7.5649414-1.546875-15.8149414-2.578125-24.7495117-3.09375
			c-8.9433594-0.5151367-18.1362305-0.2583008-27.5864258,0.7724609c-9.4589844,1.0322266-18.1357422,3.440918-26.0395508,7.2197266
			c-13.7519531,6.534668-23.0336914,16.6777344-27.84375,30.421875c-7.9111328,24.0654297-5.8496094,43.8286133,6.1875,59.2973633
			c12.7133789,16.4995117,33.1689453,23.8959961,61.3598633,22.171875
			c21.3100586-1.3691406,36.609375-8.7661133,45.8901367-22.171875c2.0634766-3.7792969,2.5791016-7.5571289,1.5473633-11.3442383
			c-0.6928711-1.7158203-1.5473633-3.3515625-2.578125-4.8984375c-1.03125-1.546875-2.0629883-2.8359375-3.09375-3.8666992
			c-1.3769531-1.3696289-2.578125-2.4008789-3.6098633-3.0942383c-2.0615234-1.03125-3.6977539-2.8359375-4.8979492-5.4140625
			c-1.2084961-2.5776367-1.6352539-5.1557617-1.2890625-7.734375c0.3383789-2.5776367,1.4580078-4.8984375,3.3520508-6.9609375
			c1.8847656-2.0629883,4.8979492-3.4321289,9.0229492-4.1245117c4.8100586-0.6845703,8.25,0.515625,10.3125,3.6098633
			c2.0625,3.0922852,3.4321289,6.3637695,4.1254883,9.796875c0,0.6923828,0.0800781,1.1191406,0.2568359,1.2880859
			c0.1694336,0.1777344,0.2583008,0.4350586,0.2583008,0.7734375c0,0.6933594,0.0805664,1.5473633,0.2583008,2.578125
			c0.1689453,1.03125,0.2573242,2.2402344,0.2573242,3.609375v0.515625c0,6.534668-1.5473633,13.5834961-4.640625,21.1416016
			c-3.09375,6.8798828-8.765625,13.7519531-17.0161133,20.6240234c-8.25,6.8798828-20.8017578,10.8286133-37.6396484,11.8603516
			c-30.253418,2.0615234-52.5947266-6.1879883-67.0322266-24.75c-6.5336914-8.2504883-10.3115234-17.9584961-11.34375-29.1333008
			c-1.0302734-11.1669922,0.515625-23.1142578,4.6411133-35.8354492c5.15625-15.1235352,15.2915039-26.2983398,30.421875-33.5166016
			c8.2495117-4.125,17.0957031-6.8720703,26.5546875-8.25c9.4501953-1.3696289,18.6430664-1.8847656,27.5859375-1.546875
			c5.4946289,0,11.0859375,0.1772461,16.7578125,0.515625c5.671875,0.3461914,11.0859375,0.862793,16.2421875,1.5463867
			c11.6816406,1.7241211,23.0258789,3.6987305,34.0317383,5.9296875
			c10.9970703,2.2397461,21.7368164,4.7294922,32.2260742,7.4770508
			c10.4819336,2.7553711,21.0522461,5.5908203,31.7119141,8.5083008
			c10.6508789,2.9243164,21.4785156,5.5908203,32.4833984,7.9921875
			c14.0917969-14.7758789,28.0136719-27.1513672,41.7661133-37.1254883
			c13.7451172-9.9658203,26.4658203-18.0473633,38.15625-24.234375
			c11.6816406-6.1879883,21.9951172-10.7397461,30.9365234-13.6640625
			c8.9355469-2.9165039,15.6386719-4.8989258,20.109375-5.9301758c13.0615234-4.4633789,26.4667969-5.6713867,40.2197266-3.6088867
			c0.3378906,0,1.9726562,0.2573242,4.8994141,0.7729492c2.9160156,0.5161133,6.3564453,1.5473633,10.3125,3.0942383
			c3.9462891,1.5463867,7.9912109,3.6977539,12.1162109,6.4453125c4.125,2.7548828,7.5566406,6.1870117,10.3125,10.3125
			C662.1621094,167.0649414,663.5322266,177.8930664,660.0996094,190.6064453z M603.8964844,393.7626953
			c6.5253906-21.3095703,10.9970703-40.6450195,13.40625-58.0073242
			c2.4003906-17.3544922,3.4316406-32.6538086,3.0927734-45.8911133
			c-0.3457031-13.2290039-1.5458984-24.4033203-3.6083984-33.5151367
			c-2.0615234-9.1040039-3.9560547-16.0654297-5.671875-20.8833008c-7.9121094,3.7871094-17.8769531,7.2192383-29.9052734,10.3125
			c-12.0380859,3.09375-25.9589844,5.1572266-41.7666016,6.1870117c-22.3496094,1.7250977-44.6904297,0.5166016-67.03125-3.6088867
			c-5.5019531,8.5966797-11.0854492,17.8774414-16.7583008,27.84375c-5.671875,9.9746094-11.2626953,20.6245117-16.7578125,31.96875
			c-9.9736328,20.625-17.9663086,41.8544922-23.9760742,63.6806641
			c-6.0180664,21.8339844-9.7167969,42.5385742-11.0859375,62.1323242c-1.0307617,20.625,0.7734375,37.9873047,5.4140625,52.0791016
			c4.640625,14.090332,11.9399414,24.0561523,21.9140625,29.9047852c0.3383789,0,0.6845703,0.1708984,1.0317383,0.5166016
			c0.3383789,0.3378906,1.199707,0.8554688,2.5771484,1.546875l7.7348633,3.609375
			c4.8095703,1.7148438,9.796875,3.09375,14.953125,4.125c9.6196289,1.7158203,21.140625,0.9423828,34.5473633-2.3183594
			c13.40625-3.2734375,26.8920898-9.9765625,40.4760742-20.1118164
			c13.5761719-10.1416016,26.7236328-24.0654297,39.4453125-41.7651367
			C584.640625,443.8681641,595.3007812,421.2685547,603.8964844,393.7626953z M611.1152344,222.0600586
			c8.25-2.7475586,15.0341797-5.7524414,20.3681641-9.0234375c5.3242188-3.2631836,9.6181641-6.4458008,12.890625-9.5395508
			c3.2626953-3.09375,5.5820312-5.9296875,6.9609375-8.5078125c1.3691406-2.578125,2.3994141-4.7211914,3.0927734-6.4453125
			c2.3994141-10.6508789,1.3691406-19.59375-3.0927734-26.8125c-2.7558594-3.7788086-6.0185547-6.7841797-9.7978516-9.0234375
			c-3.7871094-2.2319336-7.5664062-4.0371094-11.34375-5.4135742c-4.125-1.3706055-8.4287109-2.5791016-12.890625-3.6103516
			c-13.40625-2.0625-26.0380859-0.9423828-37.8994141,3.3520508c-11.8583984,4.3022461-21.7441406,9.2001953-29.6474609,14.6953125
			c-4.4707031,2.7553711-8.4267578,5.5908203-11.859375,8.5073242c-3.4404297,2.925293-6.5332031,5.5917969-9.28125,7.9926758
			c-3.0947266,2.7548828-5.6708984,5.3330078-7.734375,7.7338867c-0.3466797,0.3466797-3.7871094,4.2138672-10.3125,11.6020508
			c-6.5341797,7.3964844-14.6147461,17.7880859-24.234375,31.1953125c16.8388672,2.0625,35.2314453,3.0932617,55.1708984,3.0932617
			c13.4072266-0.3383789,25.1777344-1.199707,35.3222656-2.5771484c10.1347656-1.3701172,19.1572266-3.0942383,27.0693359-5.1567383
			c-5.15625-4.8095703-12.0361328-7.734375-20.625-8.7666016c-1.7236328,0-2.578125-1.1992188-2.578125-3.6088867
			c0.6845703-1.7158203,1.8857422-2.5776367,3.609375-2.5776367
			C593.9228516,210.2001953,602.8652344,214.5024414,611.1152344,222.0600586z"/>
	</g>
	<g>
		<path d="M483.3339844,508.5957031c-12.6816406,0.8847656-23.7392578-0.4433594-33.1738281-3.9790039
			c-9.440918-3.5410156-16.8076172-9.1391602-22.1157227-16.8100586c-5.0180664-7.0766602-7.6713867-15.480957-7.9624023-25.2124023
			c-0.296875-9.730957,1.9150391-20.0493164,6.6347656-30.9614258
			c8.8466797-20.9350586,27.8666992-33.0234375,57.0595703-36.2714844c3.2416992-0.5869141,6.3374023-0.8833008,9.2890625-0.8833008
			c2.9443359,0,5.8945312,0,8.8461914,0c5.0097656,0,9.8754883,0.1508789,14.597168,0.440918
			c4.7128906,0.2978516,9.4326172,0.7402344,14.1533203,1.328125c20.0498047,2.6538086,38.7021484,6.5654297,55.953125,11.7216797
			c17.25,5.1616211,35.1630859,9.8066406,53.7412109,13.9326172c12.6748047-12.3847656,25.2119141-22.7792969,37.5966797-31.1826172
			c12.3847656-8.4042969,23.8095703-15.2612305,34.2802734-20.5683594
			c10.4638672-5.3085938,19.6064453-9.359375,27.4228516-12.1635742c7.8105469-2.7993164,13.78125-4.6450195,17.9140625-5.5297852
			c12.0878906-3.8295898,23.8847656-4.8662109,35.3867188-3.0957031c0.2900391,0,1.6933594,0.2207031,4.2011719,0.6630859
			c2.5019531,0.4423828,5.3759766,1.3271484,8.625,2.6538086c3.2421875,1.3266602,6.4824219,3.097168,9.7304688,5.3085938
			c3.2421875,2.2114258,6.0410156,5.0859375,8.4052734,8.6240234c4.7119141,7.9624023,5.15625,17.4023438,1.3261719,28.3081055
			c-2.6533203,8.8466797-10.0273438,17.4033203-22.1162109,25.6557617
			c-12.0947266,8.5551758-26.8349609,15.3349609-44.2304688,20.3457031
			c-10.0292969,2.6538086-20.2773438,4.6450195-30.7421875,5.972168
			c-10.4697266,1.3251953-21.3056641,1.7001953-32.5107422,1.1054688c-10.9121094,0-22.7099609-1.1743164-35.3847656-3.5395508
			c-5.6044922,7.3754883-11.2099609,15.3364258-16.8076172,23.8867188
			c-5.6044922,8.5541992-11.2099609,17.6918945-16.8085938,27.421875
			c-10.3261719,17.9916992-18.875,36.347168-25.6542969,55.0708008
			c-6.7880859,18.7285156-11.3544922,36.4912109-13.7119141,53.2988281
			c-2.6533203,17.6914062-2.5078125,32.5087891,0.4423828,44.4511719
			c2.9433594,11.9433594,8.5488281,20.4160156,16.8076172,25.4345703h0.4423828
			c0,0.5878906,0.4423828,1.0302734,1.3271484,1.3261719l12.828125,6.6357422
			c1.7685547,0.5878906,3.6074219,1.1054688,5.5283203,1.5478516c1.9150391,0.4433594,4.0488281,0.9541016,6.4130859,1.5498047
			c2.0605469,0.2900391,4.1269531,0.5097656,6.1933594,0.6601562c2.0595703,0.1455078,4.2714844,0.0693359,6.6337891-0.2197266
			c10.9072266-0.8847656,20.7890625-3.0263672,29.6357422-6.4130859
			c8.8457031-3.3945312,16.8769531-7.5947266,24.1064453-12.6074219
			c7.2226562-5.0166016,13.6347656-10.6894531,19.2402344-17.0283203
			c5.5976562-6.3457031,10.6162109-12.8945312,15.0390625-19.6835938c0.5878906-2.6533203,0.9541016-5.3076172,1.1054688-7.9619141
			c0.1455078-2.6542969,0.5117188-5.1552734,1.1054688-7.5205078c0.5878906-5.0078125,1.1757812-9.5771484,1.7705078-13.7099609
			c0.5878906-4.125,1.1748047-7.6640625,1.7705078-10.6152344c2.0576172-9.4326172,4.3457031-16.8095703,6.8554688-22.1152344
			c2.5-5.3076172,4.9335938-9.2138672,7.2978516-11.7216797c2.3564453-2.5029297,4.3466797-3.9824219,5.9697266-4.4228516
			c1.6181641-0.4433594,2.7255859-0.6650391,3.3183594-0.6650391c2.0595703,0,3.9804688,0.8847656,5.75,2.65625
			c1.1757812,1.4775391,1.9912109,3.5361328,2.4316406,6.1894531c0.4423828,2.65625,0.5878906,5.3095703,0.4423828,7.9638672
			c-0.1503906,2.6513672-0.3730469,5.0166016-0.6630859,7.0742188c-0.296875,2.0683594-0.4414062,3.25-0.4414062,3.5410156
			c-2.9511719,15.0390625-7.5947266,28.0166016-13.9335938,38.9228516
			c-6.34375,10.9121094-12.4609375,19.6132812-18.3554688,26.0976562c-0.2978516,0.5849609-0.7402344,1.1728516-1.3271484,1.7695312
			c-1.4794922,7.9599609-3.0966797,16.2890625-4.8652344,24.9902344
			c-1.7705078,8.6962891-3.8359375,17.6171875-6.1923828,26.7607422
			c-0.8847656,5.0097656-2.6552734,11.2021484-5.3085938,18.5761719c-0.5947266,2.0605469-1.3271484,4.0507812-2.2119141,5.9707031
			c-0.8828125,1.9160156-1.6240234,4.0507812-2.2109375,6.4140625c-4.4228516,11.203125-9.2880859,21.5986328-14.5966797,31.1855469
			c-5.3085938,9.578125-11.0566406,18.2021484-17.2509766,25.8759766
			c-14.7490234,18.2792969-32.1445312,31.4023438-52.1933594,39.3642578
			c-0.296875,0.2910156-3.9111328,1.5488281-10.8369141,3.7597656c-6.9306641,2.2119141-15.8544922,3.6074219-26.7587891,4.2011719
			c-1.4804688,0.2910156-2.9511719,0.4433594-4.4238281,0.4433594c-1.4794922,0-2.9501953,0-4.4228516,0
			c-5.0175781,0-9.8837891-0.2226562-14.5957031-0.6630859c-4.7207031-0.4423828-9.4414062-1.2597656-14.15625-2.4335938
			c-14.7480469-3.5380859-28.4599609-10.0283203-41.1347656-19.4628906
			c-17.6918945-12.9785156-28.6044922-29.4892578-32.7314453-49.5371094
			c-3.2480469-15.0410156-2.6533203-30.6738281,1.7700195-46.8867188c0.2900391-1.4794922,0.7319336-3.4697266,1.3266602-5.9707031
			c0.5874023-2.5097656,1.3266602-4.7978516,2.2114258-6.8554688c1.4726562-2.953125,3.5380859-5.8261719,6.1923828-8.6269531
			c2.6542969-2.8037109,5.8959961-3.7597656,9.7314453-2.875c3.5380859,0.8847656,5.8945312,2.5029297,7.0766602,4.8662109
			c1.1748047,2.3574219,1.5483398,4.7119141,1.105957,7.0761719c-0.4423828,2.3574219-1.4790039,4.5683594-3.0961914,6.6347656
			c-1.6245117,2.0605469-3.4697266,3.5410156-5.5288086,4.4228516c-1.4799805,0.5878906-2.8061523,1.328125-3.9819336,2.2119141
			c-2.652832,1.7705078-4.7192383,3.9824219-6.1914062,6.6357422c-1.1821289,2.3564453-2.3637695,5.15625-3.5385742,8.4052734
			c-0.8852539,2.6513672-1.7001953,5.8183594-2.4331055,9.5097656c-0.7392578,3.6816406-0.9604492,7.5869141-0.6630859,11.7207031
			c0.5878906,5.8925781,1.7695312,11.7890625,3.5380859,17.6894531c1.7695312,5.8984375,4.7138672,11.6464844,8.847168,17.2539062
			c-0.2978516-0.2988281-0.4428711-0.5957031-0.4428711-0.8837891c2.9443359,5.3066406,8.2514648,10.5371094,15.9233398,15.7011719
			c7.6635742,5.1552734,17.2495117,8.8457031,28.7504883,11.0585938c11.5,2.2099609,24.5478516,2.2802734,39.1445312,0.2197266
			c14.5976562-2.0673828,30.5898438-7.6708984,47.9931641-16.8076172
			c14.7402344-7.671875,27.5673828-17.4707031,38.4814453-29.4140625
			c10.9052734-11.9404297,20.3457031-24.5498047,28.3066406-37.8193359
			c7.9638672-13.2695312,14.4453125-26.46875,19.4628906-39.5859375c5.0097656-13.125,8.8466797-24.7021484,11.5-34.7236328
			c-4.1337891,4.1259766-7.4501953,7.0771484-9.9521484,8.8486328c-2.5078125,1.7685547-3.9121094,2.7978516-4.2021484,3.0947266
			c-16.8085938,11.2021484-32.7304688,18.5761719-47.7705078,22.1162109
			c-12.3837891,3.2412109-23.8847656,3.9804688-34.5009766,2.2119141c-1.4794922,0-2.6533203-0.1523438-3.5380859-0.4433594
			c-17.1054688-1.4775391-32.5097656-6.7861328-46.2226562-15.9228516
			c-13.7119141-9.1435547-23.4414062-21.8964844-29.1923828-38.2607422s-6.5654297-36.2685547-2.4326172-59.7128906
			c4.1259766-23.4433594,15.4804688-50.4931641,34.0585938-81.1645508
			c6.7802734-11.2036133,13.8574219-21.6738281,21.2304688-31.4052734
			c7.3681641-9.7314453,14.7421875-18.578125,22.1162109-26.5390625c-1.1806641-0.5878906-2.3632812-1.0297852-3.5380859-1.3266602
			c-1.1806641-0.2900391-2.3632812-0.7324219-3.5380859-1.3266602
			c-12.3857422-4.1264648-22.8564453-7.5888672-31.4052734-10.3950195c-8.5566406-2.7993164-17.25-5.7504883-26.0966797-8.8466797
			c-8.8466797-3.0957031-16.0751953-5.6738281-21.6738281-7.7412109
			c-5.3076172-2.0585938-13.0478516-3.9033203-23.2207031-5.5283203
			c-10.1733398-1.6166992-20.7890625-1.8388672-31.847168-0.6630859
			c-11.0581055,1.1811523-21.5283203,4.2026367-31.4052734,9.0678711
			c-9.8823242,4.8647461-17.1801758,12.7568359-21.8945312,23.6640625
			c-9.144043,20.6420898-8.8461914,37.8935547,0.8852539,51.7509766
			c4.7133789,6.7861328,11.4243164,11.652832,20.1254883,14.5961914c8.6943359,2.9516602,18.7983398,4.1328125,30.2988281,3.5380859
			c19.4619141-1.472168,33.3188477-8.1064453,41.5776367-19.9033203c1.7685547-2.9448242,2.3564453-5.8955078,1.7685547-8.8466797
			c-0.296875-1.4726562-0.8144531-2.875-1.5478516-4.203125c-0.7392578-1.3251953-1.5478516-2.4311523-2.4335938-3.3168945
			c-1.1816406-1.1743164-2.2119141-2.059082-3.0947266-2.6538086c-1.7705078-0.8842773-3.0283203-2.4326172-3.7597656-4.6435547
			c-0.7392578-2.2128906-0.8857422-4.4243164-0.4433594-6.6357422c0.4433594-2.2109375,1.5498047-4.2011719,3.3183594-5.9716797
			c1.7675781-1.769043,4.421875-2.9438477,7.9609375-3.5380859c4.1259766-0.5869141,7.0009766,0.4418945,8.6259766,3.097168
			c1.6152344,2.6533203,2.5771484,5.4594727,2.875,8.402832c0.2900391,0.5947266,0.4423828,1.4794922,0.4423828,2.6538086v3.5380859
			c0,0.5961914-0.1523438,1.0371094-0.4423828,1.328125c-0.5947266,5.6054688-2.0664062,11.0581055-4.4228516,16.3666992
			c-2.9521484,6.1918945-8.1835938,12.4589844-15.703125,18.7978516
			C510.0942383,504.1030273,498.6635742,507.7099609,483.3339844,508.5957031z M706.2626953,391.3808594
			c-0.2978516,0.2963867-3.4697266,3.6147461-9.5117188,9.9521484
			c-6.0458984,6.3442383-13.7871094,15.2612305-23.2207031,26.7602539
			c14.1542969,1.769043,29.7802734,2.6547852,46.8867188,2.6547852c19.1630859-0.2910156,34.9414062-1.9145508,47.3261719-4.8662109
			c12.3857422-2.9448242,22.2617188-6.3374023,29.6367188-10.1733398c7.3662109-3.828125,12.75-7.7397461,16.1435547-11.7216797
			c3.3867188-3.9804688,5.5302734-7.1450195,6.4130859-9.5087891c0.2919922,0,0.4433594-0.2915039,0.4433594-0.8857422
			c3.5390625-9.1367188,3.2421875-16.9521484-0.8857422-23.4418945c-2.0654297-3.2412109-4.5732422-5.8198242-7.5185547-7.7412109
			c-2.9501953-1.9145508-5.9013672-3.4624023-8.8466797-4.6435547c-3.2480469-1.1757812-6.7861328-2.0605469-10.6142578-2.6552734
			h-0.4423828c-11.2099609-1.7685547-22.046875-0.8076172-32.5117188,2.8764648
			c-10.46875,3.6904297-19.3916016,7.8920898-26.7587891,12.605957c-4.1328125,2.3623047-7.8164062,4.7958984-11.0585938,7.2973633
			c-3.2490234,2.5092773-6.046875,4.7963867-8.4042969,6.8564453
			C710.3876953,387.1088867,708.03125,389.3217773,706.2626953,391.3808594z M739.4355469,615.1953125
			c0,0.59375-0.0751953,0.9599609-0.2207031,1.1035156c-0.1513672,0.1523438-0.2207031,0.5195312-0.2207031,1.1064453
			c5.8945312-11.203125,10.2412109-21.8955078,13.0478516-32.0673828
			c2.7988281-10.1738281,4.7890625-17.9150391,5.9716797-23.2216797v-1.3261719
			c-0.5947266-1.1757812-1.4804688-1.1757812-2.6552734,0c-0.5947266,0.296875-0.9599609,0.59375-1.1054688,0.8847656
			c-0.1513672,0.296875-0.3730469,0.59375-0.6630859,0.8847656c-1.4794922,2.3623047-3.171875,5.7480469-5.0859375,10.171875
			c-1.921875,4.4238281-3.7597656,10.4716797-5.5292969,18.1337891c-0.59375,2.9521484-1.1806641,6.4140625-1.7685547,10.3955078
			C740.6103516,605.2421875,740.0234375,609.8847656,739.4355469,615.1953125z"/>
	</g>
</g>
</svg>
